<svg width="70" height="47" viewBox="0 0 70 47" fill="none" xmlns="http://www.w3.org/2000/svg">
<g id="BELogo">
<g id="Vector">
<path fill-rule="evenodd" clip-rule="evenodd" d="M20.4539 0.00411188C22.3183 -0.0316269 24.18 0.165714 25.9985 0.591829C27.5296 0.93694 28.9832 1.57914 30.2822 2.48428C31.4818 3.38434 32.4311 4.59439 33.0345 5.99295C33.7281 7.71272 34.0627 9.56412 34.0165 11.4264C34.0953 13.4712 33.5895 15.4947 32.5621 17.2448C31.4812 18.8977 29.9872 20.2177 28.2385 21.065C30.6116 21.7255 32.6786 23.2384 34.0677 25.3318C35.4013 27.5498 36.0716 30.1247 35.9947 32.7341C36.0387 34.8146 35.622 36.878 34.7765 38.767C33.9949 40.4149 32.8505 41.851 31.4349 42.9604C29.9775 44.0575 28.3374 44.8693 26.5962 45.3553C24.7905 45.871 22.9251 46.1301 21.0516 46.1252H0.481445V0.00411188H20.4539ZM19.267 18.6583C20.7319 18.7206 22.1739 18.2679 23.3571 17.3741C23.9238 16.8533 24.3646 16.2028 24.6444 15.4747C24.9241 14.7466 25.035 13.961 24.9681 13.1807C25.0061 12.2694 24.8303 11.3621 24.4558 10.536C24.1381 9.87823 23.6442 9.32848 23.0327 8.9521C22.4133 8.53781 21.7174 8.26064 20.989 8.13811C20.1987 7.98005 19.3945 7.90815 18.5896 7.9236H9.80022V18.6994H19.267V18.6583ZM19.7793 38.2939C20.6652 38.3063 21.5493 38.2076 22.4122 38C23.2007 37.8202 23.9485 37.4861 24.6152 37.0156C25.2683 36.5454 25.796 35.9127 26.1494 35.176C26.5591 34.2367 26.7474 33.2106 26.6987 32.1816C26.7875 31.244 26.6672 30.2978 26.347 29.4155C26.0268 28.5333 25.5152 27.7385 24.8514 27.092C23.4445 26.0221 21.7203 25.4922 19.9757 25.5933H9.80022V38.2939H19.7793Z" fill="#808080"/>
<path fill-rule="evenodd" clip-rule="evenodd" d="M49.267 38.1234C49.9984 38.8234 50.86 39.3625 51.7995 39.708C52.7389 40.0535 53.7366 40.1983 54.7319 40.1334C56.3097 40.1746 57.8569 39.679 59.1351 38.7229C60.1749 38.0249 60.9624 36.9919 61.3751 35.7843H68.8068C68.015 39.222 66.0813 42.2644 63.3419 44.3826C60.714 46.1835 57.6084 47.0955 54.4558 46.9921C52.2058 47.0226 49.9727 46.5859 47.8894 45.7079C46.0048 44.8965 44.3146 43.67 42.9368 42.114C41.5643 40.4837 40.5098 38.5948 39.8315 36.5513C39.0701 34.2671 38.6975 31.8641 38.73 29.4487C38.7161 27.0738 39.1013 24.7144 39.8685 22.4755C40.8992 19.3256 42.8699 16.5939 45.4978 14.6722C48.1256 12.7505 51.2756 11.7376 54.4956 11.779C56.873 11.7277 59.2239 12.3021 61.3268 13.4481C63.2276 14.5243 64.8674 16.0313 66.1228 17.856C67.4069 19.7707 68.3274 21.9196 68.8353 24.1887C69.3923 26.6252 69.5909 29.1345 69.4245 31.6321H47.2888C47.1095 33.9787 47.8186 36.3056 49.267 38.1234ZM58.9786 20.583C58.3591 19.9434 57.6141 19.4482 56.7937 19.1309C55.9732 18.8135 55.0964 18.6814 54.2224 18.7435C53.0628 18.6978 51.9116 18.9631 50.8809 19.5134C50.0637 19.9778 49.3424 20.6027 48.7575 21.3529C48.2392 22.0563 47.853 22.8537 47.619 23.7038C47.4081 24.4128 47.2763 25.1444 47.2262 25.8842H60.9368C60.8173 23.9555 60.1368 22.1089 58.9843 20.586L58.9786 20.583Z" fill="#808080"/>
<path d="M45.4586 3.08374H62.6389V7.61798H45.4586V3.08374Z" fill="#808080"/>
</g>
</g>
</svg>
