<svg width="293" height="24" viewBox="0 0 293 24" fill="none" xmlns="http://www.w3.org/2000/svg">
<g clip-path="url(#clip0_336_1116)">
<path d="M7.5 12L10.5 15L16.5 9M22 12C22 17.5228 17.5228 22 12 22C6.47715 22 2 17.5228 2 12C2 6.47715 6.47715 2 12 2C17.5228 2 22 6.47715 22 12Z" stroke="#2D912D" stroke-width="2" stroke-linecap="round" stroke-linejoin="round"/>
</g>
<path d="M37.184 17V5.8H40.624C42.5973 5.8 44.048 6.30133 44.976 7.304C45.9147 8.30667 46.384 9.68267 46.384 11.432C46.384 13.1493 45.9147 14.5093 44.976 15.512C44.048 16.504 42.5973 17 40.624 17H37.184ZM38.528 15.88H40.592C41.68 15.88 42.544 15.704 43.184 15.352C43.8347 14.9893 44.2987 14.4773 44.576 13.816C44.8533 13.144 44.992 12.3493 44.992 11.432C44.992 10.4933 44.8533 9.688 44.576 9.016C44.2987 8.344 43.8347 7.82667 43.184 7.464C42.544 7.10133 41.68 6.92 40.592 6.92H38.528V15.88ZM52.1326 17.192C51.3753 17.192 50.7033 17.0213 50.1166 16.68C49.53 16.328 49.066 15.8427 48.7246 15.224C48.394 14.6053 48.2286 13.8747 48.2286 13.032C48.2286 12.2 48.394 11.4747 48.7246 10.856C49.0553 10.2267 49.514 9.74133 50.1006 9.4C50.698 9.048 51.386 8.872 52.1646 8.872C52.9326 8.872 53.594 9.048 54.1486 9.4C54.714 9.74133 55.146 10.1947 55.4446 10.76C55.7433 11.3253 55.8926 11.9333 55.8926 12.584C55.8926 12.7013 55.8873 12.8187 55.8766 12.936C55.8766 13.0533 55.8766 13.1867 55.8766 13.336H49.5566C49.5886 13.944 49.7273 14.4507 49.9726 14.856C50.2286 15.2507 50.5433 15.5493 50.9166 15.752C51.3006 15.9547 51.706 16.056 52.1326 16.056C52.6873 16.056 53.1513 15.928 53.5246 15.672C53.898 15.416 54.17 15.0693 54.3406 14.632H55.6686C55.4553 15.368 55.0446 15.9813 54.4366 16.472C53.8393 16.952 53.0713 17.192 52.1326 17.192ZM52.1326 10.008C51.4926 10.008 50.922 10.2053 50.4206 10.6C49.93 10.984 49.6473 11.5493 49.5726 12.296H54.5646C54.5326 11.5813 54.2873 11.0213 53.8286 10.616C53.37 10.2107 52.8046 10.008 52.1326 10.008ZM61.594 17.192C60.8047 17.192 60.1113 17.0107 59.514 16.648C58.9273 16.2853 58.4687 15.7893 58.138 15.16C57.818 14.5307 57.658 13.816 57.658 13.016C57.658 12.216 57.8233 11.5067 58.154 10.888C58.4847 10.2587 58.9433 9.768 59.53 9.416C60.1167 9.05333 60.81 8.872 61.61 8.872C62.2607 8.872 62.8367 9.00533 63.338 9.272C63.8393 9.53867 64.2287 9.912 64.506 10.392V5.48H65.85V17H64.634L64.506 15.688C64.25 16.072 63.882 16.4187 63.402 16.728C62.922 17.0373 62.3193 17.192 61.594 17.192ZM61.738 16.024C62.2713 16.024 62.7407 15.9013 63.146 15.656C63.562 15.4 63.882 15.048 64.106 14.6C64.3407 14.152 64.458 13.6293 64.458 13.032C64.458 12.4347 64.3407 11.912 64.106 11.464C63.882 11.016 63.562 10.6693 63.146 10.424C62.7407 10.168 62.2713 10.04 61.738 10.04C61.2153 10.04 60.746 10.168 60.33 10.424C59.9247 10.6693 59.6047 11.016 59.37 11.464C59.146 11.912 59.034 12.4347 59.034 13.032C59.034 13.6293 59.146 14.152 59.37 14.6C59.6047 15.048 59.9247 15.4 60.33 15.656C60.746 15.9013 61.2153 16.024 61.738 16.024ZM69.1769 7.304C68.9102 7.304 68.6862 7.21867 68.5049 7.048C68.3342 6.86667 68.2489 6.64267 68.2489 6.376C68.2489 6.12 68.3342 5.90667 68.5049 5.736C68.6862 5.56533 68.9102 5.48 69.1769 5.48C69.4329 5.48 69.6515 5.56533 69.8329 5.736C70.0142 5.90667 70.1049 6.12 70.1049 6.376C70.1049 6.64267 70.0142 6.86667 69.8329 7.048C69.6515 7.21867 69.4329 7.304 69.1769 7.304ZM68.5049 17V9.064H69.8489V17H68.5049ZM76.157 17.192C75.3997 17.192 74.717 17.0213 74.109 16.68C73.5117 16.328 73.037 15.8427 72.685 15.224C72.3437 14.5947 72.173 13.864 72.173 13.032C72.173 12.2 72.3437 11.4747 72.685 10.856C73.037 10.2267 73.5117 9.74133 74.109 9.4C74.717 9.048 75.3997 8.872 76.157 8.872C77.0957 8.872 77.885 9.11733 78.525 9.608C79.1757 10.0987 79.5863 10.7547 79.757 11.576H78.381C78.2743 11.0853 78.013 10.7067 77.597 10.44C77.181 10.1627 76.6957 10.024 76.141 10.024C75.693 10.024 75.2717 10.136 74.877 10.36C74.4823 10.584 74.1623 10.92 73.917 11.368C73.6717 11.816 73.549 12.3707 73.549 13.032C73.549 13.6933 73.6717 14.248 73.917 14.696C74.1623 15.144 74.4823 15.4853 74.877 15.72C75.2717 15.944 75.693 16.056 76.141 16.056C76.6957 16.056 77.181 15.9227 77.597 15.656C78.013 15.3787 78.2743 14.9893 78.381 14.488H79.757C79.597 15.288 79.1917 15.9387 78.541 16.44C77.8903 16.9413 77.0957 17.192 76.157 17.192ZM84.594 17.192C83.9327 17.192 83.3833 17.08 82.946 16.856C82.5087 16.632 82.1833 16.3333 81.97 15.96C81.7567 15.5867 81.65 15.1813 81.65 14.744C81.65 13.9333 81.9593 13.3093 82.578 12.872C83.1967 12.4347 84.0393 12.216 85.106 12.216H87.25V12.12C87.25 11.4267 87.0687 10.904 86.706 10.552C86.3433 10.1893 85.858 10.008 85.25 10.008C84.7273 10.008 84.274 10.1413 83.89 10.408C83.5167 10.664 83.282 11.0427 83.186 11.544H81.81C81.8633 10.968 82.0553 10.4827 82.386 10.088C82.7273 9.69333 83.1487 9.39467 83.65 9.192C84.1513 8.97867 84.6847 8.872 85.25 8.872C86.3593 8.872 87.1913 9.17067 87.746 9.768C88.3113 10.3547 88.594 11.1387 88.594 12.12V17H87.394L87.314 15.576C87.09 16.024 86.7593 16.408 86.322 16.728C85.8953 17.0373 85.3193 17.192 84.594 17.192ZM84.802 16.056C85.314 16.056 85.7513 15.9227 86.114 15.656C86.4873 15.3893 86.77 15.0427 86.962 14.616C87.154 14.1893 87.25 13.7413 87.25 13.272V13.256H85.218C84.4287 13.256 83.8687 13.3947 83.538 13.672C83.218 13.9387 83.058 14.2747 83.058 14.68C83.058 15.096 83.2073 15.432 83.506 15.688C83.8153 15.9333 84.2473 16.056 84.802 16.056ZM93.8475 17C93.1222 17 92.5515 16.824 92.1355 16.472C91.7195 16.12 91.5115 15.4853 91.5115 14.568V10.2H90.1355V9.064H91.5115L91.6875 7.16H92.8555V9.064H95.1915V10.2H92.8555V14.568C92.8555 15.0693 92.9568 15.4107 93.1595 15.592C93.3622 15.7627 93.7195 15.848 94.2315 15.848H95.0635V17H93.8475ZM100.568 17.192C99.8109 17.192 99.1389 17.0213 98.5523 16.68C97.9656 16.328 97.5016 15.8427 97.1603 15.224C96.8296 14.6053 96.6643 13.8747 96.6643 13.032C96.6643 12.2 96.8296 11.4747 97.1603 10.856C97.4909 10.2267 97.9496 9.74133 98.5363 9.4C99.1336 9.048 99.8216 8.872 100.6 8.872C101.368 8.872 102.03 9.048 102.584 9.4C103.15 9.74133 103.582 10.1947 103.88 10.76C104.179 11.3253 104.328 11.9333 104.328 12.584C104.328 12.7013 104.323 12.8187 104.312 12.936C104.312 13.0533 104.312 13.1867 104.312 13.336H97.9923C98.0243 13.944 98.1629 14.4507 98.4083 14.856C98.6643 15.2507 98.9789 15.5493 99.3523 15.752C99.7363 15.9547 100.142 16.056 100.568 16.056C101.123 16.056 101.587 15.928 101.96 15.672C102.334 15.416 102.606 15.0693 102.776 14.632H104.104C103.891 15.368 103.48 15.9813 102.872 16.472C102.275 16.952 101.507 17.192 100.568 17.192ZM100.568 10.008C99.9283 10.008 99.3576 10.2053 98.8563 10.6C98.3656 10.984 98.0829 11.5493 98.0083 12.296H103C102.968 11.5813 102.723 11.0213 102.264 10.616C101.806 10.2107 101.24 10.008 100.568 10.008ZM110.03 17.192C109.24 17.192 108.547 17.0107 107.95 16.648C107.363 16.2853 106.904 15.7893 106.574 15.16C106.254 14.5307 106.094 13.816 106.094 13.016C106.094 12.216 106.259 11.5067 106.59 10.888C106.92 10.2587 107.379 9.768 107.966 9.416C108.552 9.05333 109.246 8.872 110.046 8.872C110.696 8.872 111.272 9.00533 111.774 9.272C112.275 9.53867 112.664 9.912 112.942 10.392V5.48H114.286V17H113.07L112.942 15.688C112.686 16.072 112.318 16.4187 111.838 16.728C111.358 17.0373 110.755 17.192 110.03 17.192ZM110.174 16.024C110.707 16.024 111.176 15.9013 111.582 15.656C111.998 15.4 112.318 15.048 112.542 14.6C112.776 14.152 112.894 13.6293 112.894 13.032C112.894 12.4347 112.776 11.912 112.542 11.464C112.318 11.016 111.998 10.6693 111.582 10.424C111.176 10.168 110.707 10.04 110.174 10.04C109.651 10.04 109.182 10.168 108.766 10.424C108.36 10.6693 108.04 11.016 107.806 11.464C107.582 11.912 107.47 12.4347 107.47 13.032C107.47 13.6293 107.582 14.152 107.806 14.6C108.04 15.048 108.36 15.4 108.766 15.656C109.182 15.9013 109.651 16.024 110.174 16.024ZM123.991 17.192C123.33 17.192 122.78 17.08 122.343 16.856C121.906 16.632 121.58 16.3333 121.367 15.96C121.154 15.5867 121.047 15.1813 121.047 14.744C121.047 13.9333 121.356 13.3093 121.975 12.872C122.594 12.4347 123.436 12.216 124.503 12.216H126.647V12.12C126.647 11.4267 126.466 10.904 126.103 10.552C125.74 10.1893 125.255 10.008 124.647 10.008C124.124 10.008 123.671 10.1413 123.287 10.408C122.914 10.664 122.679 11.0427 122.583 11.544H121.207C121.26 10.968 121.452 10.4827 121.783 10.088C122.124 9.69333 122.546 9.39467 123.047 9.192C123.548 8.97867 124.082 8.872 124.647 8.872C125.756 8.872 126.588 9.17067 127.143 9.768C127.708 10.3547 127.991 11.1387 127.991 12.12V17H126.791L126.711 15.576C126.487 16.024 126.156 16.408 125.719 16.728C125.292 17.0373 124.716 17.192 123.991 17.192ZM124.199 16.056C124.711 16.056 125.148 15.9227 125.511 15.656C125.884 15.3893 126.167 15.0427 126.359 14.616C126.551 14.1893 126.647 13.7413 126.647 13.272V13.256H124.615C123.826 13.256 123.266 13.3947 122.935 13.672C122.615 13.9387 122.455 14.2747 122.455 14.68C122.455 15.096 122.604 15.432 122.903 15.688C123.212 15.9333 123.644 16.056 124.199 16.056ZM133.975 17.192C133.218 17.192 132.535 17.0213 131.927 16.68C131.33 16.328 130.855 15.8427 130.503 15.224C130.162 14.5947 129.991 13.864 129.991 13.032C129.991 12.2 130.162 11.4747 130.503 10.856C130.855 10.2267 131.33 9.74133 131.927 9.4C132.535 9.048 133.218 8.872 133.975 8.872C134.914 8.872 135.703 9.11733 136.343 9.608C136.994 10.0987 137.404 10.7547 137.575 11.576H136.199C136.092 11.0853 135.831 10.7067 135.415 10.44C134.999 10.1627 134.514 10.024 133.959 10.024C133.511 10.024 133.09 10.136 132.695 10.36C132.3 10.584 131.98 10.92 131.735 11.368C131.49 11.816 131.367 12.3707 131.367 13.032C131.367 13.6933 131.49 14.248 131.735 14.696C131.98 15.144 132.3 15.4853 132.695 15.72C133.09 15.944 133.511 16.056 133.959 16.056C134.514 16.056 134.999 15.9227 135.415 15.656C135.831 15.3787 136.092 14.9893 136.199 14.488H137.575C137.415 15.288 137.01 15.9387 136.359 16.44C135.708 16.9413 134.914 17.192 133.975 17.192ZM143.42 17.192C142.663 17.192 141.98 17.0213 141.372 16.68C140.775 16.328 140.3 15.8427 139.948 15.224C139.607 14.5947 139.436 13.864 139.436 13.032C139.436 12.2 139.607 11.4747 139.948 10.856C140.3 10.2267 140.775 9.74133 141.372 9.4C141.98 9.048 142.663 8.872 143.42 8.872C144.359 8.872 145.148 9.11733 145.788 9.608C146.439 10.0987 146.849 10.7547 147.02 11.576H145.644C145.537 11.0853 145.276 10.7067 144.86 10.44C144.444 10.1627 143.959 10.024 143.404 10.024C142.956 10.024 142.535 10.136 142.14 10.36C141.745 10.584 141.425 10.92 141.18 11.368C140.935 11.816 140.812 12.3707 140.812 13.032C140.812 13.6933 140.935 14.248 141.18 14.696C141.425 15.144 141.745 15.4853 142.14 15.72C142.535 15.944 142.956 16.056 143.404 16.056C143.959 16.056 144.444 15.9227 144.86 15.656C145.276 15.3787 145.537 14.9893 145.644 14.488H147.02C146.86 15.288 146.455 15.9387 145.804 16.44C145.153 16.9413 144.359 17.192 143.42 17.192ZM152.833 17.192C152.086 17.192 151.414 17.0213 150.817 16.68C150.22 16.3387 149.745 15.8587 149.393 15.24C149.052 14.6107 148.881 13.8747 148.881 13.032C148.881 12.1893 149.057 11.4587 149.409 10.84C149.761 10.2107 150.236 9.72533 150.833 9.384C151.441 9.04267 152.118 8.872 152.865 8.872C153.612 8.872 154.284 9.04267 154.881 9.384C155.478 9.72533 155.948 10.2107 156.289 10.84C156.641 11.4587 156.817 12.1893 156.817 13.032C156.817 13.8747 156.641 14.6107 156.289 15.24C155.937 15.8587 155.457 16.3387 154.849 16.68C154.252 17.0213 153.58 17.192 152.833 17.192ZM152.833 16.04C153.292 16.04 153.718 15.928 154.113 15.704C154.508 15.48 154.828 15.144 155.073 14.696C155.318 14.248 155.441 13.6933 155.441 13.032C155.441 12.3707 155.318 11.816 155.073 11.368C154.838 10.92 154.524 10.584 154.129 10.36C153.734 10.136 153.313 10.024 152.865 10.024C152.406 10.024 151.98 10.136 151.585 10.36C151.19 10.584 150.87 10.92 150.625 11.368C150.38 11.816 150.257 12.3707 150.257 13.032C150.257 13.6933 150.38 14.248 150.625 14.696C150.87 15.144 151.185 15.48 151.569 15.704C151.964 15.928 152.385 16.04 152.833 16.04ZM161.902 17.192C160.963 17.192 160.217 16.9093 159.662 16.344C159.107 15.768 158.83 14.888 158.83 13.704V9.064H160.174V13.56C160.174 15.2133 160.851 16.04 162.206 16.04C162.899 16.04 163.47 15.7947 163.918 15.304C164.377 14.8027 164.606 14.0933 164.606 13.176V9.064H165.95V17H164.734L164.638 15.576C164.393 16.0773 164.025 16.472 163.534 16.76C163.054 17.048 162.51 17.192 161.902 17.192ZM168.482 17V9.064H169.698L169.778 10.488C170.034 9.98667 170.402 9.592 170.882 9.304C171.362 9.016 171.906 8.872 172.514 8.872C173.453 8.872 174.199 9.16 174.754 9.736C175.319 10.3013 175.602 11.176 175.602 12.36V17H174.258V12.504C174.258 10.8507 173.575 10.024 172.21 10.024C171.527 10.024 170.957 10.2747 170.498 10.776C170.05 11.2667 169.826 11.9707 169.826 12.888V17H168.482ZM181.094 17C180.369 17 179.798 16.824 179.382 16.472C178.966 16.12 178.758 15.4853 178.758 14.568V10.2H177.382V9.064H178.758L178.934 7.16H180.102V9.064H182.438V10.2H180.102V14.568C180.102 15.0693 180.204 15.4107 180.406 15.592C180.609 15.7627 180.966 15.848 181.478 15.848H182.31V17H181.094ZM189.02 17V9.064H190.236L190.332 10.216C190.588 9.78933 190.93 9.45867 191.356 9.224C191.783 8.98933 192.263 8.872 192.796 8.872C193.426 8.872 193.964 9 194.412 9.256C194.871 9.512 195.223 9.90133 195.468 10.424C195.746 9.944 196.124 9.56533 196.604 9.288C197.095 9.01067 197.623 8.872 198.188 8.872C199.138 8.872 199.895 9.16 200.46 9.736C201.026 10.3013 201.308 11.176 201.308 12.36V17H199.98V12.504C199.98 11.6827 199.815 11.064 199.484 10.648C199.154 10.232 198.679 10.024 198.06 10.024C197.42 10.024 196.887 10.2747 196.46 10.776C196.044 11.2667 195.836 11.9707 195.836 12.888V17H194.492V12.504C194.492 11.6827 194.327 11.064 193.996 10.648C193.666 10.232 193.191 10.024 192.572 10.024C191.943 10.024 191.415 10.2747 190.988 10.776C190.572 11.2667 190.364 11.9707 190.364 12.888V17H189.02ZM206.293 17.192C205.631 17.192 205.082 17.08 204.645 16.856C204.207 16.632 203.882 16.3333 203.669 15.96C203.455 15.5867 203.349 15.1813 203.349 14.744C203.349 13.9333 203.658 13.3093 204.277 12.872C204.895 12.4347 205.738 12.216 206.805 12.216H208.949V12.12C208.949 11.4267 208.767 10.904 208.405 10.552C208.042 10.1893 207.557 10.008 206.949 10.008C206.426 10.008 205.973 10.1413 205.589 10.408C205.215 10.664 204.981 11.0427 204.885 11.544H203.509C203.562 10.968 203.754 10.4827 204.085 10.088C204.426 9.69333 204.847 9.39467 205.349 9.192C205.85 8.97867 206.383 8.872 206.949 8.872C208.058 8.872 208.89 9.17067 209.445 9.768C210.01 10.3547 210.293 11.1387 210.293 12.12V17H209.093L209.013 15.576C208.789 16.024 208.458 16.408 208.021 16.728C207.594 17.0373 207.018 17.192 206.293 17.192ZM206.501 16.056C207.013 16.056 207.45 15.9227 207.813 15.656C208.186 15.3893 208.469 15.0427 208.661 14.616C208.853 14.1893 208.949 13.7413 208.949 13.272V13.256H206.917C206.127 13.256 205.567 13.3947 205.237 13.672C204.917 13.9387 204.757 14.2747 204.757 14.68C204.757 15.096 204.906 15.432 205.205 15.688C205.514 15.9333 205.946 16.056 206.501 16.056ZM212.629 17V9.064H213.845L213.925 10.488C214.181 9.98667 214.549 9.592 215.029 9.304C215.509 9.016 216.053 8.872 216.661 8.872C217.6 8.872 218.346 9.16 218.901 9.736C219.466 10.3013 219.749 11.176 219.749 12.36V17H218.405V12.504C218.405 10.8507 217.722 10.024 216.357 10.024C215.674 10.024 215.104 10.2747 214.645 10.776C214.197 11.2667 213.973 11.9707 213.973 12.888V17H212.629ZM224.745 17.192C224.084 17.192 223.535 17.08 223.097 16.856C222.66 16.632 222.335 16.3333 222.121 15.96C221.908 15.5867 221.801 15.1813 221.801 14.744C221.801 13.9333 222.111 13.3093 222.729 12.872C223.348 12.4347 224.191 12.216 225.257 12.216H227.401V12.12C227.401 11.4267 227.22 10.904 226.857 10.552C226.495 10.1893 226.009 10.008 225.401 10.008C224.879 10.008 224.425 10.1413 224.041 10.408C223.668 10.664 223.433 11.0427 223.337 11.544H221.961C222.015 10.968 222.207 10.4827 222.537 10.088C222.879 9.69333 223.3 9.39467 223.801 9.192C224.303 8.97867 224.836 8.872 225.401 8.872C226.511 8.872 227.343 9.17067 227.897 9.768C228.463 10.3547 228.745 11.1387 228.745 12.12V17H227.545L227.465 15.576C227.241 16.024 226.911 16.408 226.473 16.728C226.047 17.0373 225.471 17.192 224.745 17.192ZM224.953 16.056C225.465 16.056 225.903 15.9227 226.265 15.656C226.639 15.3893 226.921 15.0427 227.113 14.616C227.305 14.1893 227.401 13.7413 227.401 13.272V13.256H225.369C224.58 13.256 224.02 13.3947 223.689 13.672C223.369 13.9387 223.209 14.2747 223.209 14.68C223.209 15.096 223.359 15.432 223.657 15.688C223.967 15.9333 224.399 16.056 224.953 16.056ZM234.217 14.504C233.769 14.504 233.359 14.4453 232.985 14.328L232.185 15.08C232.303 15.1653 232.447 15.24 232.617 15.304C232.799 15.3573 233.055 15.4107 233.385 15.464C233.716 15.5067 234.18 15.5547 234.777 15.608C235.844 15.6827 236.607 15.928 237.065 16.344C237.524 16.76 237.753 17.304 237.753 17.976C237.753 18.4347 237.625 18.872 237.369 19.288C237.124 19.704 236.74 20.0453 236.217 20.312C235.705 20.5787 235.044 20.712 234.233 20.712C233.519 20.712 232.884 20.616 232.329 20.424C231.775 20.2427 231.343 19.96 231.033 19.576C230.724 19.2027 230.569 18.728 230.569 18.152C230.569 17.8533 230.649 17.528 230.809 17.176C230.969 16.8347 231.268 16.5093 231.705 16.2C231.471 16.104 231.268 16.0027 231.097 15.896C230.937 15.7787 230.788 15.6507 230.649 15.512V15.144L232.009 13.8C231.38 13.2667 231.065 12.5627 231.065 11.688C231.065 11.1653 231.188 10.6907 231.433 10.264C231.679 9.83733 232.036 9.50133 232.505 9.256C232.975 9 233.545 8.872 234.217 8.872C234.676 8.872 235.092 8.936 235.465 9.064H238.393V10.072L236.905 10.136C237.215 10.584 237.369 11.1013 237.369 11.688C237.369 12.2107 237.241 12.6853 236.985 13.112C236.74 13.5387 236.383 13.88 235.913 14.136C235.455 14.3813 234.889 14.504 234.217 14.504ZM234.217 13.4C234.783 13.4 235.231 13.256 235.561 12.968C235.903 12.6693 236.073 12.2427 236.073 11.688C236.073 11.144 235.903 10.728 235.561 10.44C235.231 10.1413 234.783 9.992 234.217 9.992C233.641 9.992 233.183 10.1413 232.841 10.44C232.511 10.728 232.345 11.144 232.345 11.688C232.345 12.2427 232.511 12.6693 232.841 12.968C233.183 13.256 233.641 13.4 234.217 13.4ZM231.881 18.024C231.881 18.5573 232.105 18.952 232.553 19.208C233.001 19.4747 233.561 19.608 234.233 19.608C234.895 19.608 235.423 19.464 235.817 19.176C236.223 18.888 236.425 18.504 236.425 18.024C236.425 17.6827 236.287 17.384 236.009 17.128C235.732 16.8827 235.22 16.7387 234.473 16.696C233.887 16.6533 233.38 16.6 232.953 16.536C232.516 16.7707 232.228 17.0213 232.089 17.288C231.951 17.5653 231.881 17.8107 231.881 18.024ZM243.485 17.192C242.728 17.192 242.056 17.0213 241.469 16.68C240.882 16.328 240.418 15.8427 240.077 15.224C239.746 14.6053 239.581 13.8747 239.581 13.032C239.581 12.2 239.746 11.4747 240.077 10.856C240.408 10.2267 240.866 9.74133 241.453 9.4C242.05 9.048 242.738 8.872 243.517 8.872C244.285 8.872 244.946 9.048 245.501 9.4C246.066 9.74133 246.498 10.1947 246.797 10.76C247.096 11.3253 247.245 11.9333 247.245 12.584C247.245 12.7013 247.24 12.8187 247.229 12.936C247.229 13.0533 247.229 13.1867 247.229 13.336H240.909C240.941 13.944 241.08 14.4507 241.325 14.856C241.581 15.2507 241.896 15.5493 242.269 15.752C242.653 15.9547 243.058 16.056 243.485 16.056C244.04 16.056 244.504 15.928 244.877 15.672C245.25 15.416 245.522 15.0693 245.693 14.632H247.021C246.808 15.368 246.397 15.9813 245.789 16.472C245.192 16.952 244.424 17.192 243.485 17.192ZM243.485 10.008C242.845 10.008 242.274 10.2053 241.773 10.6C241.282 10.984 241 11.5493 240.925 12.296H245.917C245.885 11.5813 245.64 11.0213 245.181 10.616C244.722 10.2107 244.157 10.008 243.485 10.008ZM249.346 17V9.064H250.562L250.674 10.584C250.92 10.0613 251.293 9.64533 251.794 9.336C252.296 9.02667 252.914 8.872 253.65 8.872V10.28H253.282C252.813 10.28 252.381 10.3653 251.986 10.536C251.592 10.696 251.277 10.9733 251.042 11.368C250.808 11.7627 250.69 12.3067 250.69 13V17H249.346Z" fill="#808080"/>
<defs>
<clipPath id="clip0_336_1116">
<rect width="24" height="24" rx="12" fill="white"/>
</clipPath>
</defs>
</svg>
