<svg width="213" height="109" viewBox="0 0 213 109" fill="none" xmlns="http://www.w3.org/2000/svg">
<g id="undraw_engineering_team_a7n2 1" clip-path="url(#clip0_336_588)">
<path id="Vector" d="M203.546 60.2613L202.878 65.5805L201.222 78.7923H167.955C168.215 75.8311 168.57 71.5688 168.949 66.9677C168.987 66.5081 169.026 66.0457 169.063 65.5805C170.015 54.0144 171.056 40.926 171.056 40.926L175.429 41.7417L183.915 43.3214L187.373 43.9648L196.632 45.6909C201.249 46.5497 204.424 53.2418 203.546 60.2613Z" fill="#F2F2F2"/>
<path id="Vector_2" d="M178.382 19.5229L182.473 26.6902L174.61 32.2691L171.256 23.4591L178.382 19.5229Z" fill="#FFB6B6"/>
<path id="Vector_3" d="M173.173 26.3035C178.771 26.3035 183.308 21.7607 183.308 16.1569C183.308 10.5531 178.771 6.01038 173.173 6.01038C167.576 6.01038 163.039 10.5531 163.039 16.1569C163.039 21.7607 167.576 26.3035 173.173 26.3035Z" fill="#FFB6B6"/>
<path id="Vector_4" d="M172.446 18.4253C171.641 17.1991 171.957 16.5578 171.283 16.1072C171.283 16.1071 171.012 15.9258 169.072 15.8224C168.637 12.6922 168.095 12.3126 168.095 12.3126C167.47 11.8751 166.543 12.0173 165.966 12.2848C164.745 12.8508 164.887 14.0732 164.065 14.3071C162.93 14.6303 160.864 12.8085 160.661 10.723C160.495 9.0218 161.59 7.36951 162.024 7.45691C162.455 7.54358 163.485 6.22612 164.042 6.24644C164.422 6.26032 165.975 5.58454 166.393 5.63737C166.849 5.69508 168.353 6.48101 168.416 6.30145C168.852 5.05367 168.724 4.70747 169.093 4.3505C169.748 3.71797 170.82 4.15845 172.501 4.39493C175.959 4.88148 176.563 3.73981 178.335 4.51364C179.23 4.90454 179.979 5.95876 181.441 8.05124C183.486 10.9776 184.508 12.4407 184.514 14.1473C184.521 15.8877 183.679 15.7772 183.309 18.3537C182.898 21.2218 183.772 22.5332 182.817 23.465C182.078 24.1851 180.578 24.3561 179.789 23.724C178.439 22.6419 180.206 20.0308 178.712 18.1232C177.795 16.9521 175.95 16.4311 175.105 17.0099C174.15 17.6644 174.676 19.5855 174.004 19.7677C173.429 19.9237 172.586 18.639 172.446 18.4253Z" fill="#2F2E41"/>
<path id="Vector_5" d="M196.055 58.388C195.772 63.227 194.649 64.7547 194.256 70.4696C194.17 71.7243 194.118 73.1807 194.118 74.9175C194.118 75.3603 194.121 75.7884 194.121 76.2067C194.121 77.0971 194.104 77.9386 194 78.7922C193.922 79.4737 193.787 80.16 193.563 80.8833H171.735C171.733 80.8784 171.733 80.8735 171.73 80.8685C171.602 80.3126 171.521 79.7812 171.46 79.272C171.44 79.1096 171.423 78.9497 171.408 78.7922C171.388 78.6077 171.371 78.4257 171.354 78.2461C171.288 77.5302 171.221 76.8537 171.064 76.2067C170.853 75.3136 170.469 74.4722 169.683 73.6604C169.361 73.3283 169.039 73.07 168.725 72.8437C168.663 72.8018 168.604 72.76 168.543 72.7182C167.673 72.1203 166.85 71.6898 166.137 70.4696C166.125 70.4524 166.115 70.4327 166.105 70.4155C165.982 70.2015 165.663 69.6405 165.432 68.8927C165.189 68.1153 165.041 67.1386 165.307 66.1399C165.938 63.7732 168.278 63.5371 170.189 61.1458C170.396 60.8875 170.6 60.6021 170.794 60.2847C171.659 58.8775 171.892 57.6377 172.167 56.164C172.212 55.9253 172.251 55.6892 172.283 55.4605C172.308 55.2882 172.33 55.1185 172.347 54.9511C172.499 53.5464 172.425 52.3361 172.246 51.2536C171.661 47.7086 169.936 45.5141 171.155 42.3332C171.538 41.3345 172.081 40.5841 172.629 39.942C173.789 38.5815 174.981 37.6983 174.775 35.9419C174.566 34.1706 173.224 33.9269 173.074 32.3795C172.998 31.5973 173.254 30.7731 173.733 29.9637V29.9613C175.266 27.356 179.095 24.9574 181.527 25.0336C181.977 25.046 182.375 25.1468 182.707 25.3411C183.908 26.0496 183.407 27.5971 185.248 29.767C186.616 31.3783 188.164 32.0229 188.752 32.3279C191.079 33.5433 192.971 37.1276 194.256 41.7108C194.266 41.7453 194.276 41.7796 194.285 41.8166C195.079 44.6876 195.64 47.9472 195.917 51.2536C196.035 52.6534 196.104 54.0607 196.119 55.453C196.131 56.565 196.106 57.5295 196.055 58.388Z" fill="#3F66FB"/>
<g id="Group">
<path id="Vector_6" d="M179.709 74.9667L179.264 76.2066L178.984 76.9839L178.335 78.7922L177.583 80.8833H172.75L173.56 78.7922L173.936 77.818L174.561 76.2066L175.607 73.5005L179.709 74.9667Z" fill="#FFB6B6"/>
<path id="Vector_7" d="M194.332 41.2875C194.32 41.4475 194.303 41.6246 194.285 41.8166C194.094 43.7699 193.641 47.2657 192.981 51.2535C192.632 53.3569 192.224 55.5982 191.764 57.8245C190.776 62.6291 189.548 67.36 188.159 70.4695C187.911 71.0305 187.656 71.5373 187.395 71.985C187.196 72.327 186.987 72.6639 186.769 72.9961C186.061 74.0859 185.267 75.1192 184.444 76.0836C184.412 76.1254 184.375 76.1648 184.338 76.2066C184.206 76.364 184.068 76.519 183.93 76.674C183.257 77.4341 182.569 78.1426 181.903 78.7921C181.092 79.5843 180.311 80.2855 179.61 80.8832H171.762L171.73 80.8685L170.6 80.3666C170.6 80.3666 170.921 79.9877 171.46 79.2719C171.57 79.1267 171.688 78.9668 171.816 78.7921C171.973 78.5781 172.143 78.3419 172.325 78.086C172.703 77.5498 173.133 76.92 173.595 76.2066C174.49 74.8264 175.509 73.1289 176.539 71.1633C176.657 70.9345 176.777 70.7033 176.898 70.4695C176.9 70.4622 176.905 70.4547 176.907 70.4474C177.111 70.0488 177.313 69.638 177.514 69.2198C179.222 65.6624 179.711 62.7103 179.851 61.7534C180.048 60.4003 180.321 58.5084 180.247 56.4271C180.198 55.0545 179.999 53.6029 179.525 52.1613V52.1589C179.426 51.8563 179.316 51.5537 179.19 51.2535C178.967 50.7148 178.701 50.1834 178.387 49.6594C176.998 47.3518 175.871 47.2558 174.974 44.7415C174.708 43.9962 174.106 42.3135 174.29 40.5372V40.5348C174.313 40.3159 174.349 40.0945 174.399 39.873V39.8706C174.411 39.8091 174.428 39.7451 174.445 39.6836C174.585 39.14 174.816 38.6011 175.168 38.0894C175.853 37.0956 176.789 36.5051 177.627 36.1533L177.63 36.1508C178.598 35.7474 179.434 35.6613 179.596 35.6465C183.186 35.3268 185.97 38.3478 187.491 39.9985C188.078 40.6356 188.617 41.1696 189.108 41.6049C192.934 45.0246 193.983 42.8399 194.256 41.7107C194.298 41.5361 194.32 41.386 194.332 41.2875Z" fill="#3F66FB"/>
<path id="Vector_8" d="M194.344 41.1597C194.344 41.1719 194.342 41.2137 194.332 41.2827C194.337 41.2457 194.339 41.2088 194.342 41.1743C194.342 41.167 194.342 41.1621 194.344 41.1597Z" fill="#3F66FB"/>
</g>
<path id="Vector_9" d="M174.828 93.0708H43.1057C41.8818 93.0708 40.8843 94.0671 40.8843 95.2924C40.8843 96.5199 41.8818 97.5162 43.1057 97.5162H174.828C176.052 97.5162 177.047 96.5199 177.047 95.2924C177.047 94.0671 176.052 93.0708 174.828 93.0708Z" fill="#E6E6E6"/>
<path id="Vector_10" d="M145.597 104.555H72.3351C71.1114 104.555 70.1162 105.551 70.1162 106.776C70.1162 108.001 71.1114 109 72.3351 109H145.597C146.82 109 147.818 108.001 147.818 106.776C147.818 105.551 146.82 104.555 145.597 104.555Z" fill="#E6E6E6"/>
<path id="Vector_11" d="M57.7632 19.9946L66.0648 16.4968L69.6255 23.8047L60.9017 27.3696L57.7632 19.9946Z" fill="#FFB6B6"/>
<path id="Vector_12" opacity="0.1" d="M57.7632 19.9946L66.0648 16.4968L69.6255 23.8047L60.9017 27.3696L57.7632 19.9946Z" fill="#333333"/>
<path id="Vector_13" d="M58.9434 17.2098L67.1331 26.6566C67.1331 26.6566 61.4359 44.659 55.7387 46.2632C50.0416 47.8673 39.5375 55.71 39.5375 55.71L26.3628 47.1544L32.7721 37.7076C32.7721 37.7076 48.2612 16.4968 52.3561 16.4968C56.4509 16.4968 58.9434 17.2098 58.9434 17.2098Z" fill="#3F66FB"/>
<path id="Vector_14" d="M47.8786 78.7922H28.8145L27.6092 77.1791L22.6883 70.5931L21.556 69.0781C21.556 69.0781 17.2831 61.2354 18.1733 54.1058C19.0635 46.9761 28.3213 45.3719 28.3213 45.3719H28.7023L40.0361 55.3428L39.3596 64.622L42.9488 70.5931L47.8786 78.7922Z" fill="#2F2E41"/>
<path id="Vector_15" d="M32.7185 78.7923H27.6089V71.217L32.7185 78.7923Z" fill="#2F2E41"/>
<path id="Vector_16" d="M142.927 67.2921L142.291 70.5931L140.714 78.7922H109.025C109.272 76.9545 109.611 74.3094 109.972 71.454C110.008 71.1688 110.045 70.8819 110.081 70.5931C110.987 63.4153 111.979 55.2928 111.979 55.2928L116.145 55.7991L124.227 56.7794L127.521 57.1787L136.341 58.2499C140.738 58.7828 143.763 62.9359 142.927 67.2921Z" fill="#F2F2F2"/>
<path id="Vector_17" d="M187.772 78.7922H170.584C170.846 78.4839 170.994 78.3056 170.994 78.3056L176.146 77.4536L186.763 75.6997C186.763 75.6997 187.247 76.9527 187.772 78.7922Z" fill="#2F2E41"/>
<path id="Vector_18" d="M114.867 23.5597L122.341 34.1426L109.303 34.5325L107.904 24.587L114.867 23.5597Z" fill="#A0616A"/>
<path id="Vector_19" opacity="0.1" d="M114.867 23.5597L122.341 34.1426L109.303 34.5325L107.904 24.587L114.867 23.5597Z" fill="#333333"/>
<path id="uuid-ae755ff6-bb09-410e-86b1-7d1b81a37005-108" d="M78.0055 45.4868C77.0464 42.7169 74.8414 40.9671 73.0808 41.5785C71.3202 42.1898 70.6708 44.9305 71.6306 47.7012C71.9988 48.8133 72.6277 49.8209 73.4646 50.6397L77.6763 62.3245L83.1112 60.2289L78.3822 48.9323C78.5333 47.7702 78.4041 46.5887 78.0055 45.4868Z" fill="#A0616A"/>
<path id="Vector_20" d="M128.601 40.0942L128.591 50.8796L127.589 54.8633L125.527 63.057L124.026 70.5931L122.908 76.2077L122.509 78.2129C122.209 78.4143 121.909 78.6068 121.61 78.7922H95.5691C94.0896 77.9028 93.2617 77.2112 93.2617 77.2112C93.2617 77.2112 93.6712 76.8262 94.1394 76.2077C94.9299 75.1632 95.886 73.4521 95.3002 71.8176C95.1774 71.4754 95.1453 71.0583 95.1827 70.5931C95.4213 67.5238 98.6366 62.3334 98.6366 62.3334L97.9708 54.6298L97.6788 51.2539L99.7374 34.7932L106.448 30.8879L107.606 30.7757L119.041 30.1572L123.768 30.4299L123.983 30.4888L128.601 40.0942Z" fill="#CCCCCC"/>
<g id="Group_2">
<path id="Vector_21" d="M129.109 78.7922H123.412L123.161 76.2077L123.156 76.156L124.769 76.0455L128.965 75.7585L129.038 77.3057L129.095 78.4928L129.109 78.7922Z" fill="#FFB6B6"/>
<path id="Vector_22" d="M130.512 42.7019L132.905 56.7598L130.952 70.5931L130.648 72.7463L130.11 76.5482L129.944 77.7174L129.95 77.844L129.991 78.7922H123.225L122.976 76.2077L122.955 75.976L122.446 70.6822L122.437 70.5931L121.356 59.3675L123.475 51.2539L123.631 50.6568V50.655L124.553 36.7629L123.839 30.4496L123.832 30.3907C123.846 30.3997 123.859 30.4086 123.873 30.4175C123.91 30.4407 123.948 30.4638 123.983 30.4888C128.142 33.1303 130.621 37.7646 130.512 42.7019Z" fill="#CCCCCC"/>
</g>
<path id="Vector_23" d="M102.161 37.4871L99.5594 34.7931C99.5594 34.7931 93.9901 37.3067 93.7125 38.7013C93.4349 40.0958 83.6017 60.578 83.6017 60.578L79.3236 49.1388L73.7549 52.861C73.7549 52.861 78.2232 70.6211 82.402 71.4549C86.5808 72.2886 100.586 50.4341 100.586 50.4341L102.161 37.4871Z" fill="#CCCCCC"/>
<path id="Vector_24" d="M207.798 70.4695H5.19966C2.33202 70.4695 0 72.8066 0 75.6775C0 78.5485 2.33202 80.8832 5.19966 80.8832H207.798C210.666 80.8832 213 78.5486 213 75.6775C213 72.8065 210.666 70.4695 207.798 70.4695Z" fill="#E6E6E6"/>
<path id="Vector_25" d="M127.416 54.5998L127.022 73.0021C126.984 74.7835 125.53 76.2077 123.75 76.2077H89.9376C88.1999 76.2077 86.7653 74.8479 86.6705 73.1108L85.6656 54.7085C85.5632 52.8319 87.0555 51.2539 88.9327 51.2539H124.144C125.979 51.2539 127.455 52.7636 127.416 54.5998Z" fill="#3F3D56"/>
<path id="Vector_26" d="M72.8301 24.4367C77.298 24.4367 80.9199 20.8106 80.9199 16.3376C80.9199 11.8645 77.298 8.2384 72.8301 8.2384C68.3622 8.2384 64.7402 11.8645 64.7402 16.3376C64.7402 20.8106 68.3622 24.4367 72.8301 24.4367Z" fill="#FFB6B6"/>
<path id="Vector_27" d="M59.2993 37.5293L60.1895 47.1544L66.2427 71.5735L61.0131 73.4085L52.1778 46.7979L50.9575 36.1034L59.2993 37.5293Z" fill="#FFB6B6"/>
<path id="Vector_28" d="M56.8916 54.5998L56.4978 73.0021C56.4596 74.7835 55.0063 76.2077 53.2265 76.2077H19.4137C17.676 76.2077 16.2414 74.8479 16.1466 73.1108L15.1417 54.7085C15.0392 52.8319 16.5315 51.2539 18.4088 51.2539H53.6204C55.4549 51.2539 56.9309 52.7636 56.8916 54.5998Z" fill="#3F3D56"/>
<path id="Vector_29" d="M67.2068 76.3321C70.7353 76.3321 73.5958 75.0655 73.5958 73.503C73.5958 71.9405 70.7353 70.6738 67.2068 70.6738C63.6783 70.6738 60.8179 71.9405 60.8179 73.503C60.8179 75.0655 63.6783 76.3321 67.2068 76.3321Z" fill="#FFB6B6"/>
<path id="Vector_30" d="M46.748 39.0009L50.3978 19.527C50.3978 19.527 60.5458 18.1011 60.9019 21.4877C61.258 24.8742 60.6475 41.425 60.6475 41.425L46.748 39.0009Z" fill="#3F66FB"/>
<path id="Vector_31" d="M69.5644 17.611C69.5644 17.611 74.5688 15.8229 76.6797 14.8608C78.7906 13.8987 82.9844 20.6092 83.0777 17.0652C83.171 13.5211 81.7219 12.0349 81.7219 12.0349C81.7219 12.0349 81.36 4.28185 73.5579 5.25117C73.5579 5.25117 75.274 1.37221 69.6408 0.7724C64.0076 0.172591 55.2438 13.7916 56.0286 15.8269C56.8135 17.8622 57.7544 19.5448 55.5276 21.721C53.3009 23.8972 49.1312 36.1789 52.3037 39.4839C55.4761 42.7888 55.6843 44.2229 53.5107 46.279C51.337 48.3351 46.1992 52.8058 51.7544 53.5819C57.3096 54.3581 51.2461 53.7784 55.3876 50.1313C59.5291 46.4842 65.5724 46.6332 63.316 40.7817C61.0595 34.9303 64.9798 26.5452 64.4893 25.2731C63.9987 24.0011 65.5883 15.9234 65.5883 15.9234C65.5883 15.9234 69.2878 15.3793 69.5644 17.611Z" fill="#2F2E41"/>
<g id="Group_3">
<path id="Vector_32" d="M110.87 27.3901C115.734 27.3901 119.677 23.4428 119.677 18.5736C119.677 13.7044 115.734 9.75708 110.87 9.75708C106.007 9.75708 102.064 13.7044 102.064 18.5736C102.064 23.4428 106.007 27.3901 110.87 27.3901Z" fill="#A0616A"/>
<path id="Vector_33" d="M111.573 6.72042C111.318 6.86934 110.977 6.64402 110.895 6.36018C110.814 6.07633 110.909 5.77496 111.003 5.49508L111.478 4.08613C111.815 3.08687 112.173 2.05269 112.903 1.29213C114.004 0.144176 115.755 -0.147857 117.331 0.0637106C119.355 0.335406 121.352 1.43253 122.293 3.24678C123.234 5.06102 122.833 7.59255 121.133 8.72445C123.556 11.5052 124.401 14.6043 124.267 18.2922C124.134 21.9802 120.12 25.3743 117.502 27.9723C116.917 27.6175 116.386 25.9548 116.707 25.3508C117.029 24.7467 116.568 24.0469 116.966 23.4906C117.364 22.9342 117.697 23.8201 117.295 23.2669C117.041 22.9178 118.032 22.1147 117.655 21.9057C115.828 20.8951 115.221 18.6163 114.074 16.8712C112.691 14.7663 110.323 13.3408 107.817 13.1043C106.437 12.9741 104.979 13.21 103.848 14.0123C102.716 14.8145 101.984 16.2482 102.246 17.6111C101.567 16.9204 101.229 15.9082 101.356 14.9472C101.484 13.9862 102.074 13.0976 102.91 12.6086C102.402 10.9255 102.837 8.98947 104.017 7.68705C105.197 6.38463 109.984 6.60645 111.706 6.94923L111.573 6.72042Z" fill="#2F2E41"/>
<path id="Vector_34" d="M111.841 13.1554C114.122 13.402 115.77 15.3806 117.161 17.2078C117.963 18.261 118.802 19.4241 118.782 20.7481C118.762 22.0868 117.868 23.235 117.441 24.5036C116.742 26.5772 117.423 29.0444 119.085 30.4652C117.443 30.7773 115.667 29.5442 115.383 27.8946C115.053 25.9742 116.507 24.1207 116.335 22.1797C116.183 20.4697 114.837 19.1537 113.693 17.8751C112.549 16.5965 111.474 14.8999 112.001 13.266L111.841 13.1554Z" fill="#2F2E41"/>
</g>
<g id="Group_4">
<path id="uuid-aec20554-f6ec-4c5b-9d97-717cd04239bf-109" d="M145.95 71.5838C143.69 72.8707 142.522 75.0812 143.34 76.5209C144.158 77.9607 146.653 78.0843 148.914 76.7967C149.824 76.2947 150.6 75.5819 151.179 74.7178L160.685 69.1442L157.978 64.7336L148.893 70.6965C147.856 70.7527 146.846 71.0569 145.95 71.5838Z" fill="#FFB6B6"/>
<path id="Vector_35" d="M178.137 30.7123C177.853 30.5996 175.361 29.6545 173.085 30.9023C170.471 32.3356 170.067 35.6076 169.925 36.7553C169.598 39.4063 170.562 40.0005 170.765 42.6843C171.146 47.7055 172.15 41.9773 170.547 44.2692C169.992 45.0626 164.326 57.3566 161.201 59.7647C155.123 64.4481 151.264 67.7463 151.264 67.7463L155.67 72.538C155.67 72.538 162.632 70.6808 168.786 66.6804C175.098 62.577 178.254 60.5252 180.696 56.5115C180.906 56.1659 185.938 47.6118 183.236 38.153C182.619 35.9955 181.49 32.0424 178.137 30.7123Z" fill="#3F66FB"/>
</g>
<path id="Vector_36" d="M200.889 54.5998L200.495 73.0021C200.457 74.7835 199.003 76.2077 197.224 76.2077H163.411C161.673 76.2077 160.238 74.8479 160.144 73.1108L159.139 54.7085C159.036 52.8319 160.529 51.2539 162.406 51.2539H197.617C199.452 51.2539 200.928 52.7636 200.889 54.5998Z" fill="#3F3D56"/>
</g>
<defs>
<clipPath id="clip0_336_588">
<rect width="213" height="109" fill="white"/>
</clipPath>
</defs>
</svg>
