<svg width="158" height="47" viewBox="0 0 158 47" fill="none" xmlns="http://www.w3.org/2000/svg">
<g clip-path="url(#clip0_336_3848)">
<path d="M0.481445 46.715V38.6679L10.5608 31.587V46.715H0.481445Z" fill="#808080"/>
<path d="M25.9735 46.715L25.7809 36.2191L20.7681 39.7212L20.7674 46.715H15.562V28.0559L20.6873 24.4752L20.7674 31.3382L20.7687 33.7993L25.7693 30.3056L25.7764 20.9106L31.1789 17.1107V25.9397V36.3274V46.715H25.9735Z" fill="#808080"/>
<path d="M48.5047 5.00791C46.8838 6.14691 45.1956 7.32845 43.5042 8.51257C41.3999 9.98418 39.295 11.4519 37.3154 12.8198V46.7138H49.8298H54.656L54.687 0.74585L48.5047 5.00791ZM48.5047 41.7247H43.5042V14.6517L48.5047 11.1593V41.7247Z" fill="#808080"/>
<path d="M74.6503 12.6405V7.7171H69.6981V12.6405H66.9336V0.261719H69.6981V5.11552H74.6503V0.261719H77.4329V12.6379L74.6503 12.6405Z" fill="#808080"/>
<path d="M80.1084 12.6405V0.261719H82.9085V12.6379L80.1084 12.6405Z" fill="#808080"/>
<path d="M94.8078 12.6405L94.6334 11.3835C94.09 12.1687 92.9187 12.9022 91.1504 12.9022C87.7036 12.9022 84.8687 10.3709 84.8687 6.46013C84.8674 2.56613 87.8251 0 91.3248 0C94.8782 0 96.5219 2.09558 97.0639 3.82374L94.404 4.74873C94.2102 3.98102 93.389 2.58418 91.3248 2.58418C89.6451 2.58418 87.6674 3.70126 87.6674 6.46013C87.6674 9.04367 89.3821 10.3876 91.394 10.3876C93.442 10.3876 94.3013 9.06107 94.4564 8.36298H90.7292V6.0231H97.0465V12.6405H94.8078Z" fill="#808080"/>
<path d="M107.089 12.6405V7.7171H102.137V12.6405H99.3726V0.261719H102.137V5.11552H107.089V0.261719H109.872V12.6379L107.089 12.6405Z" fill="#808080"/>
<path d="M73.3899 17.0405C76.8723 17.0405 79.8293 19.5719 79.8293 23.5007C79.8293 27.4114 76.8723 29.9427 73.3899 29.9427C69.8908 29.9427 66.9331 27.4114 66.9331 23.5007C66.9331 19.5719 69.8908 17.0405 73.3899 17.0405ZM73.3899 27.2187C75.1053 27.2187 76.9601 26.0668 76.9601 23.48C76.9601 20.8933 75.1053 19.7266 73.3899 19.7266C71.6578 19.7266 69.8023 20.8965 69.8023 23.48C69.8023 26.0636 71.6578 27.2187 73.3899 27.2187Z" fill="#808080"/>
<path d="M81.7002 25.2114V17.3022H84.4647V24.9839C84.4647 26.4858 85.3046 27.24 86.6174 27.24C87.9303 27.24 88.7702 26.489 88.7702 24.9839V17.3022H91.5347V25.2114C91.5347 28.319 89.3471 29.9602 86.6174 29.9602C83.8878 29.9602 81.7002 28.319 81.7002 25.2114Z" fill="#808080"/>
<path d="M99.7756 19.9386V29.681H97.011V19.9386H93.1992V17.3022H103.611V19.9386H99.7756Z" fill="#808080"/>
<path d="M108.053 25.2288V29.681H105.288V17.3048H109.96C112.48 17.3048 114.212 18.9634 114.212 21.2684C114.212 23.6077 112.48 25.2314 109.96 25.2314L108.053 25.2288ZM109.68 22.8541C110.731 22.8541 111.448 22.2431 111.448 21.2826C111.448 20.288 110.731 19.6943 109.68 19.6943H108.07V22.8528L109.68 22.8541Z" fill="#808080"/>
<path d="M115.978 25.2114V17.3022H118.741V24.9839C118.741 26.4858 119.581 27.24 120.894 27.24C122.207 27.24 123.047 26.489 123.047 24.9839V17.3022H125.811V25.2114C125.811 28.319 123.624 29.9602 120.894 29.9602C118.164 29.9602 115.978 28.319 115.978 25.2114Z" fill="#808080"/>
<path d="M134.052 19.9386V29.681H131.288V19.9386H127.473V17.3022H137.885V19.9386H134.052Z" fill="#808080"/>
<path d="M75.9277 34.342H78.8674L74.3352 46.7183H71.4847L66.9351 34.342H69.98L72.9707 43.0544L75.9277 34.342Z" fill="#808080"/>
<path d="M80.3882 46.7209V34.3447H88.2451V36.9457H83.1527V39.3029H87.7721V41.7299H83.1527V44.1045H88.2625V46.7235L80.3882 46.7209Z" fill="#808080"/>
<path d="M98.4461 46.7208L93.3369 38.5848V46.7208H90.5898V34.3446H93.9494L98.6011 41.8696V34.342H101.366V46.7183L98.4461 46.7208Z" fill="#808080"/>
<path d="M109.609 36.9784V46.7208H106.844V36.9784H103.032V34.342H113.444V36.9784H109.609Z" fill="#808080"/>
<path d="M115.103 42.2512V34.342H117.868V42.0237C117.868 43.5256 118.707 44.2765 120.02 44.2765C121.333 44.2765 122.172 43.5256 122.172 42.0237V34.342H124.937V42.2512C124.937 45.3588 122.75 47 120.02 47C117.291 47 115.103 45.3588 115.103 42.2512Z" fill="#808080"/>
<path d="M131.271 42.1115H130.29V46.7209H127.526V34.3447H132.443C134.893 34.3447 136.468 36.0207 136.468 38.2207C136.468 39.8966 135.54 41.171 134.018 41.7131L136.537 46.7235H133.492L131.271 42.1115ZM131.917 39.7374C133.054 39.7374 133.667 39.1089 133.667 38.2355C133.667 37.3099 133.054 36.7342 131.917 36.7342H130.29V39.7374H131.917Z" fill="#808080"/>
<path d="M138.513 46.7209V34.3447H146.37V36.9457H141.278V39.3029H145.898V41.7299H141.278V44.1045H146.388V46.7235L138.513 46.7209Z" fill="#808080"/>
<path d="M154.769 38.0781C154.681 37.5025 154.21 36.5246 152.702 36.5246C151.668 36.5246 151.004 37.1692 151.004 37.8519C151.004 38.4449 151.371 38.8832 152.229 39.0386L153.892 39.3531C156.254 39.7889 157.479 41.3088 157.479 43.0718C157.479 45.0101 155.851 46.9826 152.892 46.9826C149.462 46.9826 147.992 44.7651 147.817 43.0196L150.355 42.4085C150.46 43.5436 151.23 44.5357 152.927 44.5357C154.012 44.5357 154.677 44.0116 154.677 43.2433C154.677 42.6154 154.17 42.1616 153.347 42.0043L151.65 41.6898C149.55 41.2882 148.272 39.8914 148.272 38.0581C148.272 35.7189 150.34 34.0778 152.717 34.0778C155.814 34.0778 156.987 35.9277 157.249 37.3774L154.769 38.0781Z" fill="#808080"/>
</g>
<defs>
<clipPath id="clip0_336_3848">
<rect width="157" height="47" fill="white" transform="translate(0.481445)"/>
</clipPath>
</defs>
</svg>
