<svg width="105" height="47" viewBox="0 0 105 47" fill="none" xmlns="http://www.w3.org/2000/svg">
<g id="hive_logoblack 1" clip-path="url(#clip0_336_3836)">
<path id="Vector" d="M31.6658 8.24677C30.7262 7.92885 28.7186 7.38895 27.6506 8.05292C27.4886 8.14985 27.3918 8.24677 27.3592 8.37084C27.3145 8.47049 27.3031 8.58142 27.3266 8.6878C27.352 8.83495 27.4071 8.97566 27.4886 9.10169C27.7032 9.41408 28.0075 9.65696 28.363 9.79958C28.487 9.85647 28.6173 9.89939 28.7512 9.92753C29.3238 10.0535 29.9238 9.96241 30.4308 9.6726C30.9844 9.35863 31.4095 8.86552 31.6331 8.27779L31.6658 8.24677ZM25.7083 3.73569C26.8731 5.83227 30.7588 6.6581 32.1835 6.91206C32.2208 6.76639 32.2423 6.61726 32.2477 6.46715C32.3846 5.38172 32.1696 4.28153 31.6331 3.32277C31.1129 2.41763 30.2534 1.7472 29.2373 1.45398C29.0045 1.3825 28.7664 1.32935 28.525 1.29501C27.78 1.19808 27.0351 1.327 26.4848 1.64396C26.2266 1.78181 25.9963 1.96478 25.8051 2.18385C25.6435 2.37375 25.5422 2.60593 25.5136 2.8517C25.4484 3.10177 25.5136 3.38674 25.7083 3.73569ZM27.6842 6.7531C26.4216 6.18218 25.2558 5.35538 24.6403 4.2436C24.3667 3.76027 24.2534 3.20531 24.3162 2.6559C24.39 2.20382 24.5797 1.77756 24.8675 1.41714C25.1615 1.06448 25.5243 0.77286 25.9345 0.55932C26.779 0.123121 27.7413 -0.0435949 28.687 0.0824283C28.9955 0.113515 29.2994 0.178544 29.593 0.276287C30.9534 0.657218 31.9888 1.54703 32.6685 2.69079C33.3394 3.86988 33.6117 5.22741 33.4461 6.56796C33.2485 8.02868 32.3781 9.90329 31.0502 10.639C30.6712 10.8663 30.2497 11.017 29.8105 11.0824C29.3712 11.1478 28.9231 11.1266 28.4924 11.0199C28.2892 10.9845 28.0927 10.9191 27.9095 10.8261C27.294 10.5653 26.7743 10.1524 26.4848 9.64449C26.3208 9.382 26.2108 9.0906 26.1608 8.78667C26.1275 8.47601 26.1612 8.16195 26.2596 7.86487C26.412 7.5111 26.6717 7.21194 27.0035 7.00802C27.1971 6.94405 27.456 6.84906 27.6832 6.7531H27.6842Z" fill="#808080"/>
<path id="Vector_2" fill-rule="evenodd" clip-rule="evenodd" d="M42.1864 0.87723C41.1311 0.211085 39.8795 -0.090779 38.6297 0.0194062C37.3728 0.11281 36.1908 0.64194 35.2953 1.51212C33.4181 3.25684 32.3817 5.67329 32.0903 8.11978C31.9282 9.54852 32.0251 11.0102 32.5428 12.312L32.6416 13.7417L32.7404 15.1714L32.8056 15.1394V15.2034L34.165 14.6945L35.5245 14.1866C36.9491 14.1226 38.3738 13.6147 39.6048 12.8839C41.7418 11.6131 43.5863 9.70748 44.4607 7.29394C44.8807 6.13399 44.8807 4.86752 44.4607 3.70756C44.0337 2.54808 43.2359 1.55521 42.1864 0.87723ZM33.5752 12.058C32.5714 8.5957 33.3489 4.72047 36.0036 2.24296C37.4925 0.87723 39.7915 0.595166 41.5729 1.73505C42.4247 2.27986 43.066 3.08882 43.3946 4.03291C43.7232 4.97701 43.7201 6.00187 43.3858 6.94403C42.9975 8.02382 42.4788 8.78568 41.6371 9.77145L41.313 9.54852L40.4713 9.00862L37.8818 7.36082L35.2913 5.71303C35.1374 6.09444 35.0077 6.48484 34.903 6.88199L37.2337 8.3747L39.5653 9.86741L40.5691 10.5023L40.7953 10.6613C40.5732 10.8794 40.3351 11.0812 40.083 11.2651L39.921 11.1682L38.7877 10.4374L36.7525 9.1356L34.7084 7.83384C34.6156 8.27417 34.5496 8.71955 34.5108 9.16758L36.0649 10.1524L37.62 11.1372L38.8826 11.931L39.012 11.995C38.7206 12.154 38.3965 12.312 38.1051 12.4709L36.713 11.5821L35.6124 10.8832L34.5108 10.1844V10.2164V10.2474V10.2794V10.3113V10.3433V10.3714V10.4034V10.4354V10.4684V10.4994V10.5314V10.5653V10.5973V10.6293V10.6622V10.7262V10.7592V10.7902V10.8222V10.8561V10.8881V10.9201V10.9511V10.9831V11.11V11.207V11.2709V11.3029V11.3349V11.4319V11.6257V11.7837V12.1966L34.8349 12.3905L35.1589 12.5843L36.1953 13.2512L36.551 13.4732C36.1137 13.569 35.6699 13.6338 35.2231 13.667C34.9057 13.5511 34.602 13.4019 34.3172 13.2221C34.0287 12.4709 33.7372 12.249 33.5752 12.058Z" fill="#808080"/>
<path id="Vector_3" d="M100.564 36.1042L103.932 37.248C104.053 37.2867 104.165 37.3493 104.261 37.4318C104.356 37.5144 104.434 37.6153 104.488 37.7282C104.543 37.8412 104.573 37.9639 104.578 38.0888C104.582 38.2137 104.561 38.3383 104.515 38.4548C103.575 40.8373 102.021 42.8069 99.8842 44.3674C97.4884 46.1461 94.5422 47.0039 91.1426 47.0039C86.8686 47.0039 83.2388 45.5742 80.264 42.6838C77.2892 39.7934 75.7954 35.9181 75.7954 31.0261C75.7954 26.452 77.2201 22.7038 80.102 19.7174C82.9839 16.731 86.4152 15.2383 90.3651 15.2383C94.9631 15.2383 98.5574 16.668 101.147 19.4954C103.736 22.3228 105 26.1341 105 30.8991C105.014 31.5262 104.971 32.1533 104.871 32.7728H82.9513C82.8188 32.7748 82.6881 32.803 82.5669 32.8556C82.4458 32.9083 82.3366 32.9843 82.246 33.0792C82.1554 33.174 82.0852 33.2858 82.0395 33.4079C81.9938 33.5299 81.9736 33.6597 81.9801 33.7896C82.2067 35.9815 83.0807 37.8231 84.6022 39.3145C86.349 41.0282 88.5225 41.8541 91.11 41.8541C95.1607 41.8541 97.9093 40.1384 99.3665 36.6761C99.5928 36.2002 100.111 35.9143 100.564 36.1042ZM82.1412 28.0358H97.7798C98.3301 28.0358 98.8162 27.5599 98.7184 27.02C98.4596 25.2404 97.7472 23.7477 96.5172 22.5409C95.0925 21.1112 93.0524 20.3804 90.4303 20.3804C88.067 20.3804 86.1237 21.1432 84.6012 22.6359C83.0807 24.1606 82.2706 25.9393 82.1412 28.0358Z" fill="#808080"/>
<path id="Vector_4" d="M30.4346 26.924V46.1383C30.4351 46.2511 30.4128 46.3629 30.3691 46.4672C30.3253 46.5715 30.2609 46.6663 30.1796 46.746C30.0984 46.8258 30.0018 46.889 29.8954 46.9319C29.7891 46.9748 29.6752 46.9967 29.5602 46.9961H24.9632C24.8482 46.9967 24.7343 46.9748 24.6279 46.9319C24.5216 46.889 24.425 46.8258 24.3437 46.746C24.2624 46.6663 24.1981 46.5715 24.1543 46.4672C24.1105 46.3629 24.0883 46.2511 24.0888 46.1383V26.924C24.0899 25.9436 23.8938 24.9726 23.5119 24.0667C23.1299 23.1607 22.5696 22.3375 21.863 21.6442C21.1564 20.951 20.3173 20.4013 19.3939 20.0265C18.4704 19.6518 17.4807 19.4595 16.4814 19.4605H16.0921C13.5083 19.4628 11.0309 20.4707 9.20372 22.263C7.37648 24.0553 6.34865 26.4856 6.34577 29.0206V46.1383C6.34629 46.2511 6.32404 46.3629 6.28028 46.4672C6.23653 46.5715 6.17214 46.6663 6.09084 46.746C6.00955 46.8258 5.91295 46.889 5.80663 46.9319C5.70032 46.9748 5.58638 46.9967 5.47141 46.9961H0.874367C0.759398 46.9967 0.645465 46.9748 0.539147 46.9319C0.432828 46.889 0.336232 46.8258 0.254936 46.746C0.17364 46.6663 0.109255 46.5715 0.0654999 46.4672C0.0217446 46.3629 -0.000514175 46.2511 9.0132e-06 46.1383V5.54631C-0.000382582 5.43355 0.021966 5.32183 0.0657679 5.21758C0.10957 5.11333 0.17396 5.01861 0.255229 4.93888C0.336499 4.85914 0.433043 4.79597 0.539302 4.753C0.645561 4.71002 0.759435 4.6881 0.874367 4.68848H5.47141C5.58635 4.6881 5.70022 4.71002 5.80648 4.753C5.91274 4.79597 6.00928 4.85914 6.09055 4.93888C6.17182 5.01861 6.23621 5.11333 6.28001 5.21758C6.32381 5.32183 6.34616 5.43355 6.34577 5.54631V14.5045C6.34493 14.6535 6.38437 14.8 6.46007 14.9291C6.53578 15.0583 6.64503 15.1654 6.7767 15.2396C6.90836 15.3138 7.05773 15.3524 7.20957 15.3515C7.3614 15.3506 7.51028 15.3102 7.64101 15.2344C9.9415 13.9237 12.5545 13.2334 15.2148 13.2338H16.4775C20.1787 13.2335 23.7284 14.6757 26.3459 17.2431C28.9633 19.8105 30.434 23.2928 30.4346 26.924Z" fill="#808080"/>
<path id="Vector_5" d="M77.3168 17.1409L66.0174 46.0472C65.9 46.3311 65.6982 46.5738 65.4383 46.7438C65.1784 46.9137 64.8724 47.003 64.5601 47H58.409C58.0967 47.0028 57.7907 46.9135 57.5309 46.7436C57.271 46.5737 57.0692 46.331 56.9517 46.0472L45.6522 17.1409C45.2956 16.1881 46.0405 15.2023 47.1095 15.2023H50.5407C50.8531 15.1993 51.1591 15.2886 51.419 15.4585C51.6789 15.6285 51.8806 15.8712 51.998 16.1552L60.9016 38.8986C60.9443 39.0168 61.0233 39.1191 61.1277 39.1914C61.2321 39.2638 61.3567 39.3026 61.4845 39.3026C61.6123 39.3026 61.737 39.2638 61.8414 39.1914C61.9457 39.1191 62.0247 39.0168 62.0674 38.8986L70.9711 16.1552C71.0887 15.8714 71.2905 15.6288 71.5503 15.4589C71.8102 15.289 72.1161 15.1996 72.4283 15.2023H75.828C76.9286 15.2033 77.7061 16.2191 77.3168 17.1409Z" fill="#808080"/>
<path id="Vector_6" d="M35.2262 46.2062V18.6657C35.2283 17.7479 35.6009 16.8683 36.2625 16.2194C36.924 15.5705 37.8207 15.2052 38.7562 15.2034H41.0542C41.1525 15.2017 41.25 15.2194 41.3411 15.2554C41.4322 15.2915 41.515 15.3452 41.5845 15.4133C41.654 15.4814 41.7088 15.5625 41.7457 15.6518C41.7826 15.7412 41.8008 15.8369 41.7992 15.9332V46.2062C41.8008 46.3025 41.7826 46.3982 41.7457 46.4876C41.7088 46.5769 41.654 46.658 41.5845 46.7261C41.515 46.7942 41.4322 46.8479 41.3411 46.884C41.25 46.92 41.1525 46.9377 41.0542 46.936H35.9711C35.8729 46.9377 35.7753 46.92 35.6842 46.884C35.5931 46.8479 35.5104 46.7942 35.4408 46.7261C35.3713 46.658 35.3165 46.5769 35.2796 46.4876C35.2427 46.3982 35.2246 46.3025 35.2262 46.2062Z" fill="#808080"/>
</g>
<defs>
<clipPath id="clip0_336_3836">
<rect width="105" height="47" fill="white"/>
</clipPath>
</defs>
</svg>
