<svg width="168" height="47" viewBox="0 0 168 47" fill="none" xmlns="http://www.w3.org/2000/svg">
<g clip-path="url(#clip0_336_3821)">
<path d="M67.6982 46.5845V26.9636H74.7806C80.4124 26.9636 84.5389 30.5896 84.5389 36.7881C84.5389 42.9867 80.384 46.5845 74.7564 46.5845H67.6982ZM74.6133 43.042C77.8468 43.042 80.5512 41.0499 80.5512 36.7881C80.5512 32.5263 77.8752 30.5061 74.6417 30.5061H71.546V43.042H74.6133Z" fill="#808080"/>
<path d="M87.8809 46.5845V26.9636H100.261V30.5614H91.7245V35.0446H99.4474V38.4482H91.7245V42.9867H100.256V46.5845H87.8809Z" fill="#808080"/>
<path d="M113.947 32.6923C113.752 31.6128 112.86 29.9256 110.349 29.9256C108.482 29.9256 107.256 31.1148 107.256 32.4157C107.256 33.4952 107.952 34.3534 109.403 34.6291L112.162 35.1511C115.759 35.8433 117.683 38.1673 117.683 40.9351C117.683 43.9514 115.146 46.9958 110.545 46.9958C105.303 46.9958 102.99 43.6465 102.683 40.8516L106.251 39.9119C106.419 41.8487 107.785 43.5922 110.573 43.5922C112.636 43.5922 113.779 42.5691 113.779 41.1846C113.779 40.0498 112.916 39.1644 111.381 38.8606L108.621 38.3062C105.465 37.6704 103.435 35.6501 103.435 32.6892C103.435 29.2031 106.591 26.546 110.323 26.546C115.117 26.546 116.958 29.4234 117.404 31.6379L113.947 32.6923Z" fill="#808080"/>
<path d="M120.942 46.5845V26.9636H124.845V46.5845H120.942Z" fill="#808080"/>
<path d="M144.137 46.5845L143.886 44.3429C142.994 45.671 141.046 47 138.059 47C132.735 47 128.189 43.1256 128.189 36.7882C128.189 30.4508 132.957 26.5492 138.31 26.5492C143.497 26.5492 146.367 29.5655 147.343 32.5817L143.662 33.8826C143.16 32.139 141.516 30.124 138.309 30.124C135.325 30.124 132.091 32.1443 132.091 36.7934C132.091 41.2212 135.019 43.5171 138.337 43.5171C141.989 43.5171 143.411 41.0824 143.634 39.699H137.388V36.3789H147.264V46.5897L144.137 46.5845Z" fill="#808080"/>
<path d="M163.956 46.5845L154.98 32.6652V46.5845H151.132V26.9636H155.927L164.152 39.9422V26.9636H168V46.5845H163.956Z" fill="#808080"/>
<path d="M81.8999 22.1182V12.9462H72.1878V22.1182H67.8467V0H72.1836V8.89009H81.8999V0H86.2684V22.1182H81.8999Z" fill="#808080"/>
<path d="M100.362 0.0355225C106.235 0.0355225 111.47 4.2942 111.47 11.2121C111.47 18.1028 106.235 22.3584 100.362 22.3584C94.5183 22.3584 89.2852 18.0997 89.2852 11.2121C89.2852 4.2942 94.5183 0.0355225 100.362 0.0355225ZM100.362 18.3064C103.71 18.3064 107.119 16.0095 107.119 11.1776C107.119 6.34576 103.71 4.04885 100.362 4.04885C97.0449 4.04885 93.6368 6.34576 93.6368 11.1776C93.6368 16.0095 97.0449 18.3106 100.362 18.3106V18.3064Z" fill="#808080"/>
<path d="M127.571 0H132.159L123.893 22.1182H119.43L111.196 0H115.942L121.756 16.4396L127.571 0Z" fill="#808080"/>
<path d="M0 46.6941V38.5202L10.2917 31.3278V46.6941H0Z" fill="#808080"/>
<path d="M26.0289 46.6941L25.8322 36.0322L20.7137 39.5893L20.7126 46.6941H15.3975V27.7404L20.6306 24.104L20.7126 31.0741L20.7137 33.5735L25.8196 30.0258L25.8269 20.4822L31.3441 16.6223V25.5907V36.1429V46.6941H26.0289Z" fill="#808080"/>
<path d="M49.0339 4.32863C47.3793 5.48544 45.6521 6.68192 43.9281 7.88884C41.7791 9.38392 39.6311 10.8748 37.6094 12.2645V46.692H50.3856H55.3126L55.3484 0L49.0339 4.32863ZM49.0339 41.6242H43.9281V14.1229L49.0339 10.5731V41.6242Z" fill="#808080"/>
</g>
<defs>
<clipPath id="clip0_336_3821">
<rect width="168" height="47" fill="white"/>
</clipPath>
</defs>
</svg>
