<svg width="54" height="49" viewBox="0 0 54 49" fill="none" xmlns="http://www.w3.org/2000/svg">
<path fill-rule="evenodd" clip-rule="evenodd" d="M26.3609 6.23038C26.2821 4.66165 26.0131 4.05067 24.9702 3.79265V1H6.11986V6.35258C9.94989 6.31827 10.7508 6.90196 10.5416 8.67979V29.3919C10.7699 39.4498 6.78629 44.6757 4.02537 37.7699L1 37.5372V46.6133C7.22737 48.1726 10.3296 48.129 14.9632 45.9151L17.7429 36.2715L14.9633 46.1478L21.0141 43.8206L25.9012 10.5415V7.96713L26.1338 7.16023V10.0763C49.8713 -3.88683 58.9474 51.5007 21.4794 43.8208L15.1959 46.3808C70.6839 59.382 58.0755 -10.6925 26.3609 6.23038Z" fill="#808080"/>
<path d="M24.9702 3.79265H24.4702V4.18402L24.8502 4.27801L24.9702 3.79265ZM26.3609 6.23038L25.8615 6.25547L25.9011 7.04247L26.5963 6.67151L26.3609 6.23038ZM24.9702 1H25.4702V0.5H24.9702V1ZM6.11986 1V0.5H5.61986V1H6.11986ZM6.11986 6.35258H5.61986V6.85708L6.12434 6.85256L6.11986 6.35258ZM10.5416 8.67979L10.045 8.62134L10.0416 8.65046V8.67979H10.5416ZM10.5416 29.3919H10.0414L10.0417 29.4033L10.5416 29.3919ZM4.02537 37.7699L4.48964 37.5843L4.37409 37.2952L4.06372 37.2714L4.02537 37.7699ZM1 37.5372L1.03835 37.0386L0.5 36.9972V37.5372H1ZM1 46.6133H0.5V47.0035L0.878551 47.0983L1 46.6133ZM14.9632 45.9151L15.1788 46.3663L15.3815 46.2694L15.4437 46.0536L14.9632 45.9151ZM17.7429 36.2715L18.2242 36.4069L17.2624 36.133L17.7429 36.2715ZM14.9633 46.1478L14.482 46.0124L14.2118 46.9726L15.1428 46.6145L14.9633 46.1478ZM21.0141 43.8206L21.1935 44.2873L21.4663 44.1824L21.5088 43.8932L21.0141 43.8206ZM25.9012 10.5415L26.3959 10.6142L26.4012 10.578V10.5415H25.9012ZM25.9012 7.96713L25.4208 7.82865L25.4012 7.89651V7.96713H25.9012ZM26.1338 7.16023H26.6338L25.6533 7.02175L26.1338 7.16023ZM26.1338 10.0763H25.6338V10.9505L26.3873 10.5073L26.1338 10.0763ZM21.4794 43.8208L21.5798 43.331L21.4312 43.3005L21.2907 43.3578L21.4794 43.8208ZM15.1959 46.3808L15.0072 45.9178L13.5543 46.5097L15.0818 46.8677L15.1959 46.3808ZM24.8502 4.27801C25.2797 4.38429 25.4667 4.53629 25.5879 4.75905C25.7359 5.03096 25.8222 5.47262 25.8615 6.25547L26.8603 6.20529C26.8208 5.41941 26.7331 4.77122 26.4662 4.28095C26.1726 3.74154 25.7037 3.45903 25.0903 3.30728L24.8502 4.27801ZM24.4702 1V3.79265H25.4702V1H24.4702ZM6.11986 1.5H24.9702V0.5H6.11986V1.5ZM6.61986 6.35258V1H5.61986V6.35258H6.61986ZM11.0381 8.73823C11.094 8.26325 11.0915 7.80576 10.9499 7.39747C10.8009 6.9677 10.5133 6.63646 10.0889 6.39989C9.68206 6.17315 9.15707 6.03691 8.51909 5.95573C7.87629 5.87393 7.08252 5.84394 6.11538 5.8526L6.12434 6.85256C7.07221 6.84407 7.81482 6.87417 8.39285 6.94773C8.9757 7.02189 9.35599 7.13625 9.60201 7.27338C9.8304 7.40067 9.9432 7.54655 10.0051 7.72516C10.0745 7.92526 10.0937 8.20741 10.045 8.62134L11.0381 8.73823ZM11.0416 29.3919V8.67979H10.0416V29.3919H11.0416ZM3.5611 37.9555C4.25993 39.7035 5.09041 40.8408 6.04388 41.2484C6.5444 41.4623 7.05886 41.4652 7.54646 41.27C8.01995 41.0804 8.43802 40.7171 8.80025 40.2478C9.52169 39.313 10.1052 37.8498 10.4969 36.0199C10.8909 34.1794 11.0992 31.9273 11.0414 29.3806L10.0417 29.4033C10.098 31.8855 9.8941 34.0584 9.51906 35.8106C9.14173 37.5735 8.59964 38.871 8.00861 39.6368C7.7146 40.0177 7.42973 40.2396 7.1748 40.3416C6.93397 40.438 6.69454 40.439 6.43691 40.3288C5.87408 40.0883 5.17127 39.2892 4.48964 37.5843L3.5611 37.9555ZM0.961651 38.0357L3.98702 38.2684L4.06372 37.2714L1.03835 37.0386L0.961651 38.0357ZM1.5 46.6133V37.5372H0.5V46.6133H1.5ZM14.7477 45.464C12.4729 46.5508 10.6056 47.0906 8.55754 47.1796C6.49756 47.2691 4.22128 46.9044 1.12145 46.1282L0.878551 47.0983C4.00609 47.8814 6.39459 48.2746 8.60097 48.1787C10.8193 48.0822 12.8199 47.4933 15.1788 46.3663L14.7477 45.464ZM17.2624 36.133L14.4828 45.7766L15.4437 46.0536L18.2233 36.41L17.2624 36.133ZM15.4446 46.2833L18.2242 36.4069L17.2616 36.136L14.482 46.0124L15.4446 46.2833ZM20.8346 43.3539L14.7838 45.6811L15.1428 46.6145L21.1935 44.2873L20.8346 43.3539ZM25.4065 10.4689L20.5194 43.748L21.5088 43.8932L26.3959 10.6142L25.4065 10.4689ZM25.4012 7.96713V10.5415H26.4012V7.96713H25.4012ZM25.6533 7.02175L25.4208 7.82865L26.3816 8.10561L26.6142 7.29871L25.6533 7.02175ZM25.6338 7.16023V10.0763H26.6338V7.16023H25.6338ZM26.3873 10.5073C29.2856 8.8024 31.9248 8.17596 34.2525 8.33121C36.5786 8.48635 38.6335 9.42453 40.3631 10.9168C43.8361 13.9132 45.9877 19.1428 46.2593 24.6171C46.5305 30.0852 44.9211 35.6959 41.0048 39.4643C37.1057 43.2163 30.8301 45.2271 21.5798 43.331L21.379 44.3106C30.8627 46.2545 37.5031 44.2218 41.6982 40.1849C45.8763 36.1645 47.5395 30.241 47.258 24.5676C46.9769 18.9004 44.7504 13.3812 41.0164 10.1596C39.1424 8.54281 36.8865 7.50466 34.3191 7.33343C31.7534 7.16231 28.9163 7.85944 25.8803 9.64535L26.3873 10.5073ZM21.2907 43.3578L15.0072 45.9178L15.3846 46.8439L21.668 44.2839L21.2907 43.3578ZM15.0818 46.8677C29.0413 50.1384 38.8224 48.2072 45.1043 43.6161C51.3862 39.025 54.0712 31.8446 53.9793 24.8284C53.8876 17.8224 51.0269 10.9062 46.1194 6.809C41.176 2.68175 34.2194 1.47036 26.1255 5.78925L26.5963 6.67151C34.3597 2.52894 40.8721 3.73077 45.4785 7.57663C50.1209 11.4525 52.8907 18.0693 52.9794 24.8415C53.068 31.6034 50.4833 38.4462 44.5143 42.8087C38.5453 47.1711 29.0945 49.1238 15.31 45.894L15.0818 46.8677Z" fill="#808080"/>
</svg>
