<svg width="129" height="93" viewBox="0 0 129 93" fill="none" xmlns="http://www.w3.org/2000/svg">
<g id="undraw_online_learning_re_qw08 1" clip-path="url(#clip0_349_1584)">
<path id="Vector" d="M128.814 92.2869H0.186416C0.136976 92.2869 0.0895597 92.2673 0.0545999 92.2324C0.0196401 92.1975 0 92.1502 0 92.1008C0 92.0515 0.0196401 92.0042 0.0545999 91.9693C0.0895597 91.9344 0.136976 91.9148 0.186416 91.9148H128.814C128.863 91.9148 128.91 91.9344 128.945 91.9693C128.98 92.0042 129 92.0515 129 92.1008C129 92.1502 128.98 92.1975 128.945 92.2324C128.91 92.2673 128.863 92.2869 128.814 92.2869Z" fill="#CCCCCC"/>
<path id="Vector_2" d="M116.082 59.8401H40.3973C40.0759 59.8401 39.7677 59.9675 39.5404 60.1943C39.3132 60.4211 39.1855 60.7287 39.1855 61.0494C39.1855 61.3701 39.3132 61.6777 39.5404 61.9045C39.7677 62.1313 40.0759 62.2587 40.3973 62.2587H42.541V91.1888C42.541 91.5095 42.6687 91.8171 42.8959 92.0439C43.1232 92.2707 43.4314 92.3981 43.7527 92.3981C44.0741 92.3981 44.3823 92.2707 44.6095 92.0439C44.8368 91.8171 44.9644 91.5095 44.9644 91.1888L44.9829 62.2587H111.329V91.1888C111.329 91.5095 111.456 91.8171 111.684 92.0439C111.911 92.2707 112.219 92.3981 112.54 92.3981C112.862 92.3981 113.17 92.2707 113.397 92.0439C113.624 91.8171 113.752 91.5095 113.752 91.1888V62.8963L114.105 62.2587H116.082C116.404 62.2587 116.712 62.1313 116.939 61.9045C117.166 61.6777 117.294 61.3701 117.294 61.0494C117.294 60.7287 117.166 60.4211 116.939 60.1943C116.712 59.9675 116.404 59.8401 116.082 59.8401Z" fill="#CCCCCC"/>
<path id="Vector_3" d="M82.3575 60.473H59.4317C58.9878 60.4725 58.5622 60.2963 58.2483 59.983C57.9344 59.6697 57.7578 59.245 57.7573 58.802V46.205C57.7578 45.7619 57.9344 45.3372 58.2483 45.0239C58.5622 44.7107 58.9878 44.5344 59.4317 44.5339H82.3575C82.8014 44.5344 83.227 44.7107 83.5409 45.0239C83.8548 45.3372 84.0313 45.7619 84.0318 46.205V58.802C84.0313 59.245 83.8548 59.6697 83.5409 59.983C83.227 60.2963 82.8014 60.4725 82.3575 60.473Z" fill="#3F3D56"/>
<path id="Vector_4" d="M82.3573 45.8201H59.4317C59.3295 45.8203 59.2314 45.8609 59.1591 45.9331C59.0868 46.0053 59.0461 46.1031 59.0459 46.2052V58.8023C59.0461 58.9044 59.0868 59.0022 59.1591 59.0744C59.2315 59.1466 59.3295 59.1872 59.4317 59.1875H82.3573C82.4596 59.1872 82.5576 59.1466 82.6299 59.0744C82.7022 59.0022 82.7429 58.9044 82.7431 58.8023V46.2052C82.7429 46.1031 82.7022 46.0053 82.6299 45.9331C82.5576 45.8609 82.4596 45.8203 82.3573 45.8201Z" fill="white"/>
<path id="Vector_5" d="M72.8501 54.7387C72.8501 54.7387 70.1056 54.1075 68.5962 55.2647C67.0867 56.4218 70.5173 59.0516 70.5173 59.0516L72.8501 54.7387Z" fill="#2F2E41"/>
<path id="Vector_6" d="M71.0292 53.5462C72.4589 53.5462 73.618 52.3894 73.618 50.9625C73.618 49.5356 72.4589 48.3789 71.0292 48.3789C69.5995 48.3789 68.4404 49.5356 68.4404 50.9625C68.4404 52.3894 69.5995 53.5462 71.0292 53.5462Z" fill="#A0616A"/>
<path id="Vector_7" d="M69.0272 47.3357C69.1998 47.0433 69.4501 46.8042 69.7503 46.6447C70.0505 46.4853 70.3891 46.4118 70.7285 46.4323C71.0836 46.4768 71.4301 46.5736 71.7567 46.7196L73.449 47.3784C73.887 47.5489 74.3666 47.7577 74.5566 48.1868C74.733 48.585 74.6014 49.0449 74.4682 49.4596L73.835 51.4304C73.7649 50.9844 73.6445 50.5476 73.4762 50.1285C73.3051 49.7066 72.996 49.3549 72.5992 49.1306C72.1596 48.9055 71.6415 48.9102 71.148 48.9339C70.4491 48.9674 69.6892 49.0562 69.1927 49.5482C68.9291 49.8276 68.7503 50.1759 68.6773 50.5527C68.6054 50.9274 68.5692 51.3082 68.5692 51.6897C68.2826 51.1981 68.0412 50.6815 67.8479 50.1464C67.6889 49.748 67.5983 49.3256 67.5799 48.8971C67.5633 48.465 67.707 48.0419 67.9834 47.7089C68.1238 47.5461 68.3069 47.4257 68.5121 47.3613C68.7173 47.2968 68.9365 47.2909 69.1449 47.344L69.0272 47.3357Z" fill="#2F2E41"/>
<path id="Vector_8" d="M77.2106 56.979C77.1863 56.8917 77.1367 56.8135 77.068 56.7543C76.9994 56.6951 76.9148 56.6574 76.8247 56.6459C76.8188 56.6418 76.8125 56.6381 76.8061 56.6348L72.9414 54.4733C72.831 54.4115 72.7011 54.3947 72.5786 54.4261C72.4561 54.4576 72.3504 54.535 72.2837 54.6422L71.2267 56.3501L69.6347 54.7613L69.6094 54.736C69.5277 54.6545 69.4198 54.6043 69.3047 54.5943C69.1896 54.5842 69.0746 54.615 68.98 54.6811L65.8038 56.9008C65.7982 56.9008 65.7926 56.9027 65.7871 56.9027C65.635 56.928 65.4962 57.0043 65.3935 57.1189C65.2908 57.2336 65.2303 57.3798 65.2221 57.5334L65.1401 59.1873H77.8239L77.2106 56.979Z" fill="#3F66FB"/>
<path id="Vector_9" d="M84.2893 58.9304H81.8422C81.8422 58.8622 81.815 58.7968 81.7667 58.7486C81.7184 58.7004 81.6529 58.6733 81.5846 58.6733H80.8118C80.7435 58.6733 80.678 58.7004 80.6297 58.7486C80.5813 58.7968 80.5542 58.8622 80.5542 58.9304H79.7814C79.7814 58.8622 79.7543 58.7968 79.706 58.7486C79.6577 58.7004 79.5921 58.6733 79.5238 58.6733H78.7511C78.6827 58.6733 78.6172 58.7004 78.5689 58.7486C78.5206 58.7968 78.4935 58.8622 78.4935 58.9304H77.7207C77.7207 58.8622 77.6935 58.7968 77.6452 58.7486C77.5969 58.7004 77.5314 58.6733 77.4631 58.6733H76.6903C76.622 58.6733 76.5565 58.7004 76.5082 58.7486C76.4599 58.7968 76.4327 58.8622 76.4327 58.9304H75.6599C75.6599 58.8622 75.6328 58.7968 75.5845 58.7486C75.5362 58.7004 75.4707 58.6733 75.4023 58.6733H74.6296C74.5612 58.6733 74.4957 58.7004 74.4474 58.7486C74.3991 58.7968 74.372 58.8622 74.372 58.9304H73.5992C73.5992 58.8622 73.5721 58.7968 73.5237 58.7486C73.4754 58.7004 73.4099 58.6733 73.3416 58.6733H72.5688C72.5005 58.6733 72.435 58.7004 72.3867 58.7486C72.3384 58.7968 72.3112 58.8622 72.3112 58.9304H71.5384C71.5384 58.8622 71.5113 58.7968 71.463 58.7486C71.4147 58.7004 71.3492 58.6733 71.2808 58.6733H70.5081C70.4397 58.6733 70.3742 58.7004 70.3259 58.7486C70.2776 58.7968 70.2505 58.8622 70.2505 58.9304H69.4777C69.4777 58.8622 69.4506 58.7968 69.4022 58.7486C69.3539 58.7004 69.2884 58.6733 69.2201 58.6733H68.4473C68.379 58.6733 68.3135 58.7004 68.2652 58.7486C68.2169 58.7968 68.1897 58.8622 68.1897 58.9304H67.417C67.417 58.8622 67.3898 58.7968 67.3415 58.7486C67.2932 58.7004 67.2277 58.6733 67.1594 58.6733H66.3866C66.3183 58.6733 66.2527 58.7004 66.2044 58.7486C66.1561 58.7968 66.129 58.8622 66.129 58.9304H65.3562C65.3562 58.8622 65.3291 58.7968 65.2808 58.7486C65.2324 58.7004 65.1669 58.6733 65.0986 58.6733H64.3258C64.2575 58.6733 64.192 58.7004 64.1437 58.7486C64.0954 58.7968 64.0682 58.8622 64.0682 58.9304H63.2955C63.2955 58.8622 63.2683 58.7968 63.22 58.7486C63.1717 58.7004 63.1062 58.6733 63.0379 58.6733H62.2651C62.1968 58.6733 62.1312 58.7004 62.0829 58.7486C62.0346 58.7968 62.0075 58.8622 62.0075 58.9304H61.2347C61.2347 58.8622 61.2076 58.7968 61.1593 58.7486C61.111 58.7004 61.0454 58.6733 60.9771 58.6733H60.2043C60.136 58.6733 60.0705 58.7004 60.0222 58.7486C59.9739 58.7968 59.9467 58.8622 59.9467 58.9304H57.4996C57.2949 58.9307 57.0986 59.0121 56.9539 59.1567C56.8093 59.3013 56.728 59.4973 56.728 59.7017C56.728 59.906 56.8093 60.102 56.9539 60.2466C57.0986 60.3912 57.2949 60.4726 57.4996 60.4729H84.2893C84.4943 60.4729 84.6908 60.3917 84.8357 60.247C84.9807 60.1024 85.0621 59.9062 85.0621 59.7017C85.0621 59.4971 84.9807 59.301 84.8357 59.1563C84.6908 59.0117 84.4943 58.9304 84.2893 58.9304Z" fill="#3F3D56"/>
<path id="Vector_10" d="M53.516 54.4515V59.5726H40.6604C40.3159 59.5845 39.9726 59.5271 39.6509 59.4038C39.3291 59.2806 39.0356 59.0939 38.7877 58.8549C38.5398 58.616 38.3426 58.3297 38.208 58.013C38.0733 57.6964 38.0039 57.356 38.0039 57.012C38.0039 56.6681 38.0733 56.3276 38.208 56.011C38.3426 55.6944 38.5398 55.4081 38.7877 55.1691C39.0356 54.9302 39.3291 54.7435 39.6509 54.6202C39.9726 54.4969 40.3159 54.4395 40.6604 54.4515H53.516Z" fill="#F2F2F2"/>
<path id="Vector_11" d="M53.8317 59.5333C53.8317 59.5856 53.8109 59.6357 53.7739 59.6726C53.7369 59.7095 53.6867 59.7303 53.6344 59.7303H40.4313C39.7142 59.7303 39.0265 59.446 38.5195 58.9399C38.0124 58.4339 37.7275 57.7476 37.7275 57.0319C37.7275 56.3162 38.0124 55.6299 38.5195 55.1238C39.0265 54.6178 39.7142 54.3335 40.4313 54.3335H53.6344C53.6867 54.3335 53.7369 54.3542 53.7739 54.3912C53.8109 54.4281 53.8317 54.4782 53.8317 54.5305C53.8317 54.5827 53.8109 54.6328 53.7739 54.6697C53.7369 54.7067 53.6867 54.7274 53.6344 54.7274H40.4313C39.8193 54.728 39.2325 54.971 38.7999 55.4031C38.3673 55.8352 38.1243 56.4211 38.1243 57.0319C38.1243 57.6427 38.3673 58.2286 38.7999 58.6607C39.2325 59.0928 39.8193 59.3358 40.4313 59.3364H53.6344C53.6867 59.3364 53.7369 59.3571 53.7739 59.3941C53.8109 59.431 53.8317 59.4811 53.8317 59.5333Z" fill="#3F66FB"/>
<path id="Vector_12" d="M53.5162 55.6335H39.7014C39.6962 55.6335 39.691 55.6325 39.6862 55.6306C39.6814 55.6286 39.677 55.6257 39.6733 55.622C39.6696 55.6184 39.6667 55.614 39.6647 55.6092C39.6627 55.6044 39.6616 55.5993 39.6616 55.5941C39.6616 55.5889 39.6627 55.5837 39.6647 55.5789C39.6667 55.5741 39.6696 55.5698 39.6733 55.5661C39.677 55.5625 39.6814 55.5596 39.6862 55.5576C39.691 55.5556 39.6962 55.5547 39.7014 55.5547H53.5162C53.5267 55.5548 53.5366 55.5589 53.544 55.5663C53.5513 55.5737 53.5554 55.5837 53.5554 55.5941C53.5554 55.6045 53.5513 55.6145 53.544 55.6218C53.5366 55.6292 53.5267 55.6334 53.5162 55.6335Z" fill="#CCCCCC"/>
<path id="Vector_13" d="M53.5162 56.5788H39.7014C39.6962 56.5788 39.691 56.5778 39.6862 56.5759C39.6814 56.5739 39.677 56.571 39.6733 56.5673C39.6696 56.5637 39.6667 56.5593 39.6647 56.5545C39.6627 56.5497 39.6616 56.5446 39.6616 56.5394C39.6616 56.5342 39.6627 56.529 39.6647 56.5243C39.6667 56.5195 39.6696 56.5151 39.6733 56.5114C39.677 56.5078 39.6814 56.5049 39.6862 56.5029C39.691 56.501 39.6962 56.5 39.7014 56.5H53.5162C53.5267 56.5001 53.5366 56.5042 53.544 56.5116C53.5513 56.519 53.5554 56.529 53.5554 56.5394C53.5554 56.5498 53.5513 56.5598 53.544 56.5672C53.5366 56.5745 53.5267 56.5787 53.5162 56.5788Z" fill="#CCCCCC"/>
<path id="Vector_14" d="M53.5162 57.5241H39.7014C39.6962 57.5241 39.691 57.5231 39.6862 57.5212C39.6814 57.5192 39.677 57.5163 39.6733 57.5127C39.6696 57.509 39.6667 57.5046 39.6647 57.4998C39.6627 57.495 39.6616 57.4899 39.6616 57.4847C39.6616 57.4795 39.6627 57.4744 39.6647 57.4696C39.6667 57.4648 39.6696 57.4604 39.6733 57.4568C39.677 57.4531 39.6814 57.4502 39.6862 57.4482C39.691 57.4463 39.6962 57.4453 39.7014 57.4453H53.5162C53.5267 57.4454 53.5366 57.4496 53.544 57.4569C53.5513 57.4643 53.5554 57.4743 53.5554 57.4847C53.5554 57.4951 53.5513 57.5051 53.544 57.5125C53.5366 57.5198 53.5267 57.524 53.5162 57.5241Z" fill="#CCCCCC"/>
<path id="Vector_15" d="M53.5162 58.4697H39.7014C39.6962 58.4697 39.691 58.4687 39.6862 58.4667C39.6814 58.4648 39.677 58.4619 39.6733 58.4582C39.6696 58.4546 39.6667 58.4502 39.6647 58.4454C39.6627 58.4406 39.6616 58.4355 39.6616 58.4303C39.6616 58.4251 39.6627 58.4199 39.6647 58.4151C39.6667 58.4103 39.6696 58.406 39.6733 58.4023C39.677 58.3987 39.6814 58.3958 39.6862 58.3938C39.691 58.3918 39.6962 58.3908 39.7014 58.3909H53.5162C53.5267 58.3909 53.5366 58.3951 53.544 58.4025C53.5513 58.4099 53.5554 58.4199 53.5554 58.4303C53.5554 58.4407 53.5513 58.4506 53.544 58.458C53.5366 58.4654 53.5267 58.4696 53.5162 58.4697Z" fill="#CCCCCC"/>
<path id="Vector_16" d="M51.0927 49.0562V54.1773H38.237C37.8926 54.1892 37.5493 54.1319 37.2275 54.0086C36.9058 53.8853 36.6122 53.6986 36.3643 53.4597C36.1164 53.2207 35.9193 52.9344 35.7846 52.6178C35.65 52.3012 35.5806 51.9607 35.5806 51.6168C35.5806 51.2728 35.65 50.9324 35.7846 50.6158C35.9193 50.2991 36.1164 50.0128 36.3643 49.7739C36.6122 49.5349 36.9058 49.3482 37.2275 49.2249C37.5493 49.1017 37.8926 49.0443 38.237 49.0562H51.0927Z" fill="#F2F2F2"/>
<path id="Vector_17" d="M51.4084 54.1378C51.4084 54.1901 51.3876 54.2401 51.3506 54.2771C51.3136 54.314 51.2634 54.3348 51.211 54.3348H38.008C37.6529 54.3348 37.3013 54.265 36.9733 54.1294C36.6452 53.9938 36.3472 53.795 36.0961 53.5444C35.845 53.2939 35.6459 52.9964 35.51 52.669C35.3741 52.3416 35.3042 51.9907 35.3042 51.6364C35.3042 51.282 35.3741 50.9311 35.51 50.6038C35.6459 50.2764 35.845 49.9789 36.0961 49.7283C36.3472 49.4778 36.6452 49.279 36.9733 49.1434C37.3013 49.0078 37.6529 48.938 38.008 48.938H51.211C51.2634 48.938 51.3136 48.9587 51.3506 48.9957C51.3876 49.0326 51.4084 49.0827 51.4084 49.135C51.4084 49.1872 51.3876 49.2373 51.3506 49.2742C51.3136 49.3112 51.2634 49.3319 51.211 49.3319H38.008C37.3959 49.3325 36.8091 49.5755 36.3766 50.0076C35.944 50.4397 35.701 51.0256 35.701 51.6364C35.701 52.2472 35.944 52.833 36.3766 53.2652C36.8091 53.6973 37.3959 53.9403 38.008 53.9409H51.211C51.2634 53.9409 51.3136 53.9616 51.3506 53.9986C51.3876 54.0355 51.4084 54.0856 51.4084 54.1378Z" fill="#3F3D56"/>
<path id="Vector_18" d="M51.0929 50.238H37.278C37.2728 50.238 37.2677 50.237 37.2628 50.235C37.258 50.2331 37.2536 50.2302 37.2499 50.2265C37.2462 50.2229 37.2433 50.2185 37.2413 50.2137C37.2393 50.2089 37.2383 50.2038 37.2383 50.1986C37.2383 50.1934 37.2393 50.1882 37.2413 50.1834C37.2433 50.1786 37.2462 50.1743 37.2499 50.1706C37.2536 50.167 37.258 50.1641 37.2628 50.1621C37.2677 50.1601 37.2728 50.1591 37.278 50.1592H51.0929C51.1033 50.1593 51.1133 50.1634 51.1206 50.1708C51.128 50.1782 51.1321 50.1882 51.1321 50.1986C51.1321 50.209 51.128 50.219 51.1206 50.2263C51.1133 50.2337 51.1033 50.2379 51.0929 50.238Z" fill="#CCCCCC"/>
<path id="Vector_19" d="M51.0929 51.1835H37.278C37.2728 51.1836 37.2677 51.1826 37.2628 51.1806C37.258 51.1786 37.2536 51.1757 37.2499 51.1721C37.2462 51.1684 37.2433 51.1641 37.2413 51.1593C37.2393 51.1545 37.2383 51.1493 37.2383 51.1441C37.2383 51.1389 37.2393 51.1338 37.2413 51.129C37.2433 51.1242 37.2462 51.1198 37.2499 51.1162C37.2536 51.1125 37.258 51.1096 37.2628 51.1077C37.2677 51.1057 37.2728 51.1047 37.278 51.1047H51.0929C51.1033 51.1048 51.1133 51.109 51.1206 51.1164C51.128 51.1237 51.1321 51.1337 51.1321 51.1441C51.1321 51.1545 51.128 51.1645 51.1206 51.1719C51.1133 51.1793 51.1033 51.1834 51.0929 51.1835Z" fill="#CCCCCC"/>
<path id="Vector_20" d="M51.0929 52.1288H37.278C37.2728 52.1289 37.2677 52.1279 37.2628 52.1259C37.258 52.124 37.2536 52.1211 37.2499 52.1174C37.2462 52.1137 37.2433 52.1094 37.2413 52.1046C37.2393 52.0998 37.2383 52.0946 37.2383 52.0894C37.2383 52.0842 37.2393 52.0791 37.2413 52.0743C37.2433 52.0695 37.2462 52.0652 37.2499 52.0615C37.2536 52.0578 37.258 52.0549 37.2628 52.053C37.2677 52.051 37.2728 52.05 37.278 52.05H51.0929C51.1033 52.0501 51.1133 52.0543 51.1206 52.0617C51.128 52.0691 51.1321 52.079 51.1321 52.0894C51.1321 52.0998 51.128 52.1098 51.1206 52.1172C51.1133 52.1246 51.1033 52.1288 51.0929 52.1288Z" fill="#CCCCCC"/>
<path id="Vector_21" d="M51.0929 53.0744H37.278C37.2728 53.0744 37.2677 53.0734 37.2628 53.0715C37.258 53.0695 37.2536 53.0666 37.2499 53.0629C37.2462 53.0593 37.2433 53.0549 37.2413 53.0501C37.2393 53.0453 37.2383 53.0402 37.2383 53.035C37.2383 53.0298 37.2393 53.0247 37.2413 53.0199C37.2433 53.0151 37.2462 53.0107 37.2499 53.007C37.2536 53.0034 37.258 53.0005 37.2628 52.9985C37.2677 52.9966 37.2728 52.9956 37.278 52.9956H51.0929C51.1033 52.9957 51.1133 52.9999 51.1206 53.0072C51.128 53.0146 51.1321 53.0246 51.1321 53.035C51.1321 53.0454 51.128 53.0554 51.1206 53.0628C51.1133 53.0701 51.1033 53.0743 51.0929 53.0744Z" fill="#CCCCCC"/>
<path id="Vector_22" d="M66.048 77.7752V73.3101C66.048 73.1127 65.9694 72.9234 65.8296 72.7839C65.6897 72.6443 65.5001 72.5659 65.3023 72.5659H48.3384C48.1407 72.5659 47.951 72.6443 47.8112 72.7839C47.6713 72.9234 47.5928 73.1127 47.5928 73.3101V77.7752H66.048Z" fill="#CCCCCC"/>
<path id="Vector_23" d="M66.048 79.4497H47.5928V85.2171H66.048V79.4497Z" fill="#CCCCCC"/>
<path id="Vector_24" d="M47.5928 86.8914V91.3565C47.5928 91.5538 47.6713 91.7431 47.8112 91.8827C47.951 92.0222 48.1407 92.1006 48.3384 92.1006H65.3023C65.5001 92.1006 65.6897 92.0222 65.8296 91.8827C65.9694 91.7431 66.048 91.5538 66.048 91.3565V86.8914H47.5928Z" fill="#CCCCCC"/>
<path id="Vector_25" d="M56.7272 75.9146C57.0361 75.9146 57.2865 75.6647 57.2865 75.3565C57.2865 75.0482 57.0361 74.7983 56.7272 74.7983C56.4184 74.7983 56.168 75.0482 56.168 75.3565C56.168 75.6647 56.4184 75.9146 56.7272 75.9146Z" fill="white"/>
<path id="Vector_26" d="M56.7272 83.3565C57.0361 83.3565 57.2865 83.1066 57.2865 82.7984C57.2865 82.4901 57.0361 82.2402 56.7272 82.2402C56.4184 82.2402 56.168 82.4901 56.168 82.7984C56.168 83.1066 56.4184 83.3565 56.7272 83.3565Z" fill="white"/>
<path id="Vector_27" d="M56.757 90.6409C57.0659 90.6409 57.3163 90.391 57.3163 90.0828C57.3163 89.7745 57.0659 89.5247 56.757 89.5247C56.4481 89.5247 56.1978 89.7745 56.1978 90.0828C56.1978 90.391 56.4481 90.6409 56.757 90.6409Z" fill="white"/>
<path id="Vector_28" d="M63.9555 67.4747V72.5957H51.0998C50.7554 72.6077 50.4121 72.5503 50.0903 72.427C49.7686 72.3037 49.475 72.1171 49.2271 71.8781C48.9792 71.6392 48.7821 71.3528 48.6474 71.0362C48.5128 70.7196 48.4434 70.3792 48.4434 70.0352C48.4434 69.6913 48.5128 69.3508 48.6474 69.0342C48.7821 68.7176 48.9792 68.4313 49.2271 68.1923C49.475 67.9534 49.7686 67.7667 50.0903 67.6434C50.4121 67.5201 50.7554 67.4627 51.0998 67.4747H63.9555Z" fill="#F2F2F2"/>
<path id="Vector_29" d="M64.2715 72.5565C64.2715 72.6087 64.2507 72.6588 64.2137 72.6958C64.1767 72.7327 64.1265 72.7535 64.0741 72.7535H50.8711C50.5158 72.7538 50.164 72.6842 49.8357 72.5487C49.5074 72.4133 49.209 72.2145 48.9577 71.9639C48.7064 71.7133 48.5071 71.4158 48.3711 71.0882C48.235 70.7607 48.165 70.4096 48.165 70.0551C48.165 69.7005 48.235 69.3495 48.3711 69.0219C48.5071 68.6944 48.7064 68.3968 48.9577 68.1462C49.209 67.8956 49.5074 67.6969 49.8357 67.5614C50.164 67.426 50.5158 67.3564 50.8711 67.3567H64.0741C64.1265 67.3567 64.1767 67.3774 64.2137 67.4144C64.2507 67.4513 64.2715 67.5014 64.2715 67.5536C64.2715 67.6059 64.2507 67.656 64.2137 67.6929C64.1767 67.7299 64.1265 67.7506 64.0741 67.7506H50.8711C50.259 67.7512 49.6722 67.9942 49.2396 68.4263C48.8071 68.8584 48.5641 69.4443 48.5641 70.0551C48.5641 70.6659 48.8071 71.2517 49.2396 71.6839C49.6722 72.116 50.259 72.359 50.8711 72.3596H64.0741C64.1265 72.3596 64.1766 72.3803 64.2136 72.4173C64.2507 72.4542 64.2715 72.5043 64.2715 72.5565Z" fill="#3F3D56"/>
<path id="Vector_30" d="M63.9557 68.6567H50.1408C50.1356 68.6567 50.1304 68.6557 50.1256 68.6537C50.1208 68.6518 50.1164 68.6489 50.1127 68.6452C50.109 68.6416 50.1061 68.6372 50.1041 68.6324C50.1021 68.6276 50.1011 68.6225 50.1011 68.6173C50.1011 68.6121 50.1021 68.6069 50.1041 68.6021C50.1061 68.5973 50.109 68.593 50.1127 68.5893C50.1164 68.5857 50.1208 68.5828 50.1256 68.5808C50.1304 68.5788 50.1356 68.5778 50.1408 68.5779H63.9557C63.9661 68.578 63.9761 68.5821 63.9834 68.5895C63.9908 68.5969 63.9949 68.6069 63.9949 68.6173C63.9949 68.6277 63.9908 68.6377 63.9834 68.645C63.9761 68.6524 63.9661 68.6566 63.9557 68.6567Z" fill="#CCCCCC"/>
<path id="Vector_31" d="M63.9557 69.602H50.1408C50.1356 69.602 50.1304 69.601 50.1256 69.5991C50.1208 69.5971 50.1164 69.5942 50.1127 69.5905C50.109 69.5869 50.1061 69.5825 50.1041 69.5777C50.1021 69.5729 50.1011 69.5678 50.1011 69.5626C50.1011 69.5574 50.1021 69.5522 50.1041 69.5474C50.1061 69.5427 50.109 69.5383 50.1127 69.5346C50.1164 69.531 50.1208 69.5281 50.1256 69.5261C50.1304 69.5241 50.1356 69.5232 50.1408 69.5232H63.9557C63.9661 69.5233 63.9761 69.5274 63.9834 69.5348C63.9908 69.5422 63.9949 69.5522 63.9949 69.5626C63.9949 69.573 63.9908 69.583 63.9834 69.5903C63.9761 69.5977 63.9661 69.6019 63.9557 69.602Z" fill="#CCCCCC"/>
<path id="Vector_32" d="M63.9557 70.5475H50.1408C50.1356 70.5476 50.1304 70.5466 50.1256 70.5446C50.1208 70.5427 50.1164 70.5397 50.1127 70.5361C50.109 70.5324 50.1061 70.5281 50.1041 70.5233C50.1021 70.5185 50.1011 70.5133 50.1011 70.5081C50.1011 70.5029 50.1021 70.4978 50.1041 70.493C50.1061 70.4882 50.109 70.4838 50.1127 70.4802C50.1164 70.4765 50.1208 70.4736 50.1256 70.4717C50.1304 70.4697 50.1356 70.4687 50.1408 70.4688H63.9557C63.9661 70.4688 63.9761 70.473 63.9834 70.4804C63.9908 70.4878 63.9949 70.4977 63.9949 70.5081C63.9949 70.5185 63.9908 70.5285 63.9834 70.5359C63.9761 70.5433 63.9661 70.5475 63.9557 70.5475Z" fill="#CCCCCC"/>
<path id="Vector_33" d="M63.9557 71.4928H50.1408C50.1356 71.4929 50.1304 71.4919 50.1256 71.4899C50.1208 71.488 50.1164 71.4851 50.1127 71.4814C50.109 71.4778 50.1061 71.4734 50.1041 71.4686C50.1021 71.4638 50.1011 71.4587 50.1011 71.4535C50.1011 71.4483 50.1021 71.4431 50.1041 71.4383C50.1061 71.4335 50.109 71.4292 50.1127 71.4255C50.1164 71.4218 50.1208 71.4189 50.1256 71.417C50.1304 71.415 50.1356 71.414 50.1408 71.4141H63.9557C63.9661 71.4141 63.9761 71.4183 63.9834 71.4257C63.9908 71.4331 63.9949 71.4431 63.9949 71.4535C63.9949 71.4639 63.9908 71.4738 63.9834 71.4812C63.9761 71.4886 63.9661 71.4928 63.9557 71.4928Z" fill="#CCCCCC"/>
<path id="Vector_34" d="M46.6245 34.0504V1.39933C46.6249 1.02834 46.7728 0.672656 47.0356 0.410322C47.2985 0.147988 47.6549 0.000421996 48.0266 0H73.8879C74.2596 0.000424453 74.616 0.147992 74.8789 0.410325C75.1417 0.672659 75.2896 1.02834 75.29 1.39933V34.0504C75.2896 34.4214 75.1417 34.7771 74.8789 35.0394C74.616 35.3017 74.2596 35.4493 73.8879 35.4497H48.0266C47.6549 35.4493 47.2985 35.3017 47.0356 35.0394C46.7728 34.7771 46.6249 34.4214 46.6245 34.0504ZM48.0266 0.310963C47.7375 0.311286 47.4603 0.426058 47.2559 0.630096C47.0514 0.834135 46.9364 1.11078 46.9361 1.39933V34.0504C46.9364 34.3389 47.0514 34.6156 47.2559 34.8196C47.4603 35.0237 47.7375 35.1384 48.0266 35.1387H73.8879C74.177 35.1384 74.4542 35.0237 74.6586 34.8196C74.8631 34.6156 74.9781 34.3389 74.9784 34.0504V1.39933C74.9781 1.11078 74.8631 0.834135 74.6586 0.630096C74.4542 0.426058 74.177 0.311287 73.8879 0.310963H48.0266Z" fill="#E6E6E6"/>
<path id="Vector_35" d="M62.4077 14.9948V8.29049C62.4079 8.10499 62.4818 7.92715 62.6133 7.79598C62.7447 7.66481 62.9229 7.59103 63.1088 7.59082H68.8014C68.9872 7.59103 69.1654 7.66481 69.2969 7.79598C69.4283 7.92715 69.5022 8.10499 69.5024 8.29049V14.9948C69.5022 15.1803 69.4283 15.3581 69.2969 15.4893C69.1654 15.6205 68.9872 15.6942 68.8014 15.6944H63.1088C62.9229 15.6942 62.7447 15.6205 62.6133 15.4893C62.4818 15.3581 62.4079 15.1803 62.4077 14.9948Z" fill="#3F66FB"/>
<path id="Vector_36" d="M51.3462 18.1044V11.4001C51.3464 11.2146 51.4203 11.0368 51.5518 10.9056C51.6832 10.7744 51.8614 10.7006 52.0473 10.7004H57.7398C57.9257 10.7006 58.1039 10.7744 58.2353 10.9056C58.3668 11.0368 58.4407 11.2146 58.4409 11.4001V18.1044C58.4407 18.2899 58.3668 18.4677 58.2353 18.5989C58.1039 18.7301 57.9257 18.8039 57.7398 18.8041H52.0473C51.8614 18.8039 51.6832 18.7301 51.5518 18.5989C51.4203 18.4677 51.3464 18.2899 51.3462 18.1044Z" fill="#CCCCCC"/>
<path id="Vector_37" d="M60.2266 27.5888V20.8845C60.2268 20.699 60.3007 20.5211 60.4321 20.39C60.5636 20.2588 60.7417 20.185 60.9276 20.1848H66.6202C66.8061 20.185 66.9843 20.2588 67.1157 20.39C67.2471 20.5211 67.3211 20.699 67.3213 20.8845V27.5888C67.3211 27.7743 67.2471 27.9521 67.1157 28.0833C66.9843 28.2144 66.8061 28.2882 66.6202 28.2884H60.9276C60.7417 28.2882 60.5636 28.2144 60.4321 28.0833C60.3007 27.9521 60.2268 27.7743 60.2266 27.5888Z" fill="#FE7F9C"/>
<path id="Vector_38" d="M94.2453 58.2405H88.3881C88.3325 58.2405 88.2776 58.2532 88.2278 58.2777L86.7495 59.0163C86.7008 59.0369 86.6593 59.0714 86.6302 59.1154C86.601 59.1594 86.5854 59.211 86.5854 59.2638C86.5854 59.3165 86.601 59.3681 86.6302 59.4121C86.6593 59.4561 86.7008 59.4906 86.7495 59.5112L88.2278 60.2498C88.2776 60.2743 88.3325 60.2871 88.3881 60.287H94.2453C94.326 60.2917 94.4053 60.2644 94.466 60.2111C94.5267 60.1579 94.564 60.0828 94.5697 60.0024V58.5252C94.564 58.4447 94.5267 58.3697 94.466 58.3164C94.4053 58.2631 94.326 58.2358 94.2453 58.2405Z" fill="#3F3D56"/>
<path id="Vector_39" d="M94.5695 58.5249V60.0021C94.5638 60.0826 94.5265 60.1576 94.4658 60.2109C94.4051 60.2642 94.3258 60.2914 94.245 60.2868H93.0781V58.2403H94.245C94.3258 58.2356 94.4051 58.2629 94.4658 58.3161C94.5265 58.3694 94.5638 58.4444 94.5695 58.5249Z" fill="#3F66FB"/>
<path id="Vector_40" d="M94.2011 47.1893C94.4664 47.075 94.7529 47.018 95.0418 47.0219C95.3307 47.0259 95.6156 47.0907 95.8777 47.2121C96.1397 47.3336 96.3731 47.5089 96.5626 47.7267C96.752 47.9444 96.8932 48.1997 96.9769 48.4757C97.003 48.5632 97.0229 48.6524 97.0366 48.7427L105.227 52.7963L107.123 51.5426L109.481 54.2524L106.587 56.5984C106.239 56.8783 105.81 57.0388 105.363 57.056C104.916 57.0732 104.476 56.9462 104.108 56.6939L95.7973 50.9584C95.7354 50.9846 95.6723 51.0076 95.6081 51.0273C95.3315 51.1108 95.0403 51.135 94.7537 51.0983C94.467 51.0617 94.1914 50.965 93.9448 50.8146C93.6982 50.6643 93.4862 50.4636 93.3228 50.2258C93.1593 49.9879 93.0481 49.7183 92.9963 49.4346C92.9809 49.3522 92.9708 49.269 92.966 49.1854C92.9429 48.7666 93.0489 48.3508 93.2698 47.9939C93.4906 47.6371 93.8156 47.3563 94.2011 47.1893Z" fill="#F8DFE5"/>
<path id="Vector_41" d="M111.261 72.147H102.311C102.311 72.4037 93.0873 72.6121 93.0873 72.6121C92.9425 72.7209 92.8106 72.8457 92.694 72.9842C92.3437 73.4012 92.1522 73.9283 92.1533 74.4725V74.8446C92.1536 75.4613 92.3991 76.0527 92.8361 76.4888C93.273 76.9249 93.8656 77.17 94.4835 77.1702H111.261C111.879 77.1697 112.471 76.9245 112.908 76.4885C113.345 76.0525 113.591 75.4613 113.591 74.8446V74.4725C113.59 73.856 113.345 73.265 112.908 72.8291C112.471 72.3931 111.879 72.1478 111.261 72.147Z" fill="#3F3D56"/>
<path id="Vector_42" d="M101.525 92.7058H103.949V77.078H101.525V92.7058Z" fill="#3F3D56"/>
<path id="Vector_43" d="M94.6279 92.6207C94.6279 92.8821 98.3002 92.7218 102.83 92.7218C107.36 92.7218 111.033 92.8821 111.033 92.6207C111.033 92.3594 107.36 90.2871 102.83 90.2871C98.3002 90.2871 94.6279 92.3594 94.6279 92.6207Z" fill="#3F3D56"/>
<path id="Vector_44" d="M96.816 90.7892L94.5307 90.789L93.4434 84.8733L96.8164 84.8735L96.816 90.7892Z" fill="#F8DFE5"/>
<path id="Vector_45" d="M97.3989 93L90.0298 92.9998V92.9067C90.0298 92.5308 90.104 92.1586 90.2481 91.8113C90.3923 91.464 90.6035 91.1484 90.8699 90.8826C91.1362 90.6168 91.4524 90.4059 91.8004 90.2621C92.1484 90.1182 92.5214 90.0442 92.8981 90.0442H92.8983L97.3991 90.0444L97.3989 93Z" fill="#2F2E41"/>
<path id="Vector_46" d="M93.3974 87.1207L88.8413 76.924C88.4609 76.0645 88.4188 75.0936 88.7235 74.2047C89.0281 73.3157 89.6571 72.5738 90.4852 72.1269L100.368 66.8381L104.877 66.4552L109.037 66.0779L109.067 66.1286C109.106 66.1933 110 67.735 109.395 69.4256C108.937 70.708 107.744 71.7096 105.85 72.4027C101.429 74.0204 96.3224 75.4031 94.332 75.9223C94.244 75.9448 94.1618 75.9856 94.0908 76.042C94.0197 76.0984 93.9615 76.1692 93.9198 76.2497C93.878 76.3293 93.8532 76.4166 93.8469 76.5063C93.8406 76.5959 93.853 76.6858 93.8832 76.7704L98.1161 86.2615C98.1603 86.3819 98.1762 86.5108 98.1626 86.6383C98.149 86.7657 98.1062 86.8884 98.0376 86.9968C97.969 87.1052 97.8764 87.1964 97.7669 87.2634C97.6573 87.3304 97.5339 87.3714 97.4059 87.3832L94.2431 87.6131C94.2163 87.6156 94.1895 87.6169 94.1629 87.6169C94.0009 87.6168 93.8424 87.5699 93.7066 87.4819C93.5707 87.3938 93.4634 87.2684 93.3974 87.1207Z" fill="#2F2E41"/>
<path id="Vector_47" d="M97.9342 90.7892L95.6489 90.789L94.5615 84.8733L97.9345 84.8735L97.9342 90.7892Z" fill="#F8DFE5"/>
<path id="Vector_48" d="M98.5171 93L91.1479 92.9998V92.9067C91.1479 92.5308 91.2221 92.1586 91.3663 91.8113C91.5104 91.464 91.7217 91.1484 91.9881 90.8826C92.2544 90.6168 92.5706 90.4059 92.9186 90.2621C93.2666 90.1182 93.6396 90.0442 94.0162 90.0442H94.0164L98.5172 90.0444L98.5171 93Z" fill="#2F2E41"/>
<path id="Vector_49" d="M94.7026 87.6788L90.1464 77.4821C89.766 76.6226 89.724 75.6517 90.0286 74.7628C90.3333 73.8738 90.9623 73.1319 91.7904 72.685L101.673 67.3962L106.183 67.0133L110.342 66.636L110.372 66.6867C110.411 66.7514 111.305 68.2931 110.701 69.9837C110.242 71.2661 109.049 72.2677 107.155 72.9608C102.734 74.5785 97.6276 75.9612 95.6372 76.4804C95.5492 76.5029 95.467 76.5437 95.396 76.6001C95.3249 76.6565 95.2666 76.7273 95.225 76.8078C95.1832 76.8874 95.1584 76.9747 95.1521 77.0644C95.1458 77.154 95.1581 77.2439 95.1884 77.3285L99.4212 86.8196C99.4654 86.94 99.4814 87.0689 99.4678 87.1964C99.4542 87.3238 99.4114 87.4465 99.3428 87.5549C99.2742 87.6633 99.1815 87.7545 99.072 87.8215C98.9625 87.8885 98.839 87.9295 98.7111 87.9413L95.5483 88.1712C95.5214 88.1737 95.4947 88.175 95.4681 88.175C95.3061 88.1749 95.1476 88.128 95.0118 88.04C94.8759 87.9519 94.7685 87.8265 94.7026 87.6788Z" fill="#2F2E41"/>
<path id="Vector_50" d="M92.4315 56.529C90.5169 53.9874 89.0034 51.1683 87.9435 48.1697C87.8821 47.9903 87.8864 47.795 87.9558 47.6185C88.0252 47.4421 88.155 47.2959 88.3222 47.2061L94.8739 43.7025C94.9799 43.6454 95.0975 43.6132 95.2179 43.6083C95.3382 43.6034 95.4581 43.626 95.5684 43.6744C95.6807 43.7231 95.7804 43.7968 95.8599 43.8897C95.9394 43.9827 95.9966 44.0926 96.0272 44.2109C96.7898 47.1005 98.2232 49.7704 100.211 52.0045C100.293 52.0955 100.353 52.2039 100.387 52.3214C100.42 52.439 100.427 52.5626 100.405 52.683C100.384 52.8014 100.337 52.9135 100.266 53.0108C100.195 53.1081 100.103 53.188 99.9968 53.2445L93.4452 56.748C93.2776 56.8372 93.0837 56.8641 92.8981 56.824C92.7125 56.7839 92.5471 56.6794 92.4315 56.529Z" fill="#CCCCCC"/>
<path id="Vector_51" d="M92.8787 56.1937C92.9139 56.2376 92.9634 56.2679 93.0186 56.2793C93.0738 56.2906 93.1313 56.2824 93.181 56.2561L99.7327 52.7525C99.7645 52.7359 99.7921 52.7122 99.8132 52.6833C99.8343 52.6543 99.8484 52.6209 99.8544 52.5856C99.8612 52.5483 99.8593 52.51 99.8488 52.4735C99.8383 52.4371 99.8195 52.4037 99.7938 52.3757C97.7469 50.0758 96.2713 47.3272 95.4863 44.3525C95.4772 44.3157 95.4597 44.2816 95.4352 44.2527C95.4107 44.2238 95.3798 44.201 95.345 44.186C95.3122 44.1713 95.2764 44.1645 95.2405 44.166C95.2046 44.1675 95.1695 44.1772 95.138 44.1945L88.5864 47.698C88.5368 47.7248 88.4981 47.768 88.477 47.8202C88.4559 47.8725 88.4538 47.9304 88.4709 47.984C89.5119 50.929 90.9984 53.6976 92.8787 56.1937Z" fill="white"/>
<path id="Vector_52" d="M114.197 55.5944L109.066 57.5403L107.813 54.0675C107.647 53.6063 107.65 53.1014 107.82 52.6418C107.991 52.1822 108.319 51.7976 108.746 51.556C109.178 51.3115 109.684 51.2294 110.171 51.3244C110.659 51.4194 111.096 51.6853 111.405 52.074L114.197 55.5944Z" fill="#3F66FB"/>
<path id="Vector_53" d="M101.146 69.3543C101.038 69.2781 100.948 69.1797 100.881 69.0659C100.814 68.9521 100.772 68.8253 100.758 68.694C100.1 62.5713 100.558 57.7798 102.157 54.0457C102.438 53.4017 102.863 52.8297 103.398 52.3728C103.932 51.9159 104.564 51.5859 105.245 51.4077L109.393 51.1987L109.414 51.2091C110.35 51.6666 111.114 52.413 111.591 53.3375C112.069 54.2621 112.235 55.3156 112.065 56.3418C110.731 59.8512 109.614 63.5051 110.466 66.4527C110.502 66.5759 110.512 66.7051 110.496 66.8324C110.481 66.9598 110.44 67.0827 110.376 67.1938C110.313 67.3012 110.23 67.3947 110.13 67.4686C110.03 67.5424 109.916 67.5951 109.795 67.6234L101.895 69.4989C101.767 69.5293 101.634 69.5321 101.505 69.5072C101.376 69.4822 101.253 69.4301 101.146 69.3543Z" fill="#3F66FB"/>
<path id="Vector_54" d="M108.009 49.6526C110.537 49.6526 112.587 47.6068 112.587 45.0832C112.587 42.5595 110.537 40.5137 108.009 40.5137C105.48 40.5137 103.43 42.5595 103.43 45.0832C103.43 47.6068 105.48 49.6526 108.009 49.6526Z" fill="#F8DFE5"/>
<path id="Vector_55" d="M95.3042 48.7024L91.7359 50.2744C91.6002 50.334 91.4464 50.3375 91.3081 50.284C91.1699 50.2305 91.0585 50.1245 90.9985 49.9892L90.9102 49.7897C90.8505 49.6542 90.847 49.5007 90.9006 49.3627C90.9542 49.2247 91.0604 49.1136 91.196 49.0537L94.7643 47.4817C94.9 47.4221 95.0539 47.4186 95.1921 47.4721C95.3304 47.5255 95.4417 47.6316 95.5018 47.7669L95.59 47.9664C95.6498 48.1018 95.6532 48.2554 95.5996 48.3934C95.5461 48.5314 95.4398 48.6425 95.3042 48.7024Z" fill="#CCCCCC"/>
<path id="Vector_56" d="M96.6089 51.1209L93.0406 52.6929C92.9049 52.7525 92.7511 52.7559 92.6128 52.7025C92.4746 52.649 92.3632 52.543 92.3032 52.4077L92.2149 52.2081C92.1552 52.0727 92.1517 51.9191 92.2053 51.7812C92.2589 51.6432 92.3651 51.532 92.5007 51.4721L96.069 49.9001C96.2047 49.8405 96.3586 49.8371 96.4968 49.8905C96.6351 49.944 96.7464 50.05 96.8065 50.1853L96.8947 50.3849C96.9544 50.5203 96.9579 50.6739 96.9043 50.8118C96.8507 50.9498 96.7445 51.061 96.6089 51.1209Z" fill="#CCCCCC"/>
<path id="Vector_57" d="M99.3606 60.568L91.4054 54.3045C91.3421 54.3268 91.2776 54.3458 91.2123 54.3614C90.9315 54.427 90.6401 54.4328 90.3569 54.3786C90.0737 54.3244 89.8051 54.2113 89.5685 54.0467C89.3304 53.882 89.1303 53.6685 88.9815 53.4203C88.8328 53.1722 88.7389 52.8952 88.7061 52.608C88.6527 52.1487 88.7564 51.6849 89.0004 51.2919C89.2443 50.8989 89.6142 50.5996 90.0499 50.4427C90.3219 50.3454 90.6114 50.3064 90.8995 50.3285C91.1876 50.3506 91.4678 50.4332 91.7217 50.5708C91.9756 50.7085 92.1975 50.8981 92.3728 51.1273C92.5482 51.3565 92.6731 51.6201 92.7392 51.9008C92.7597 51.9898 92.774 52.0801 92.7819 52.171L100.701 56.7305L102.672 55.5981L104.855 58.4506L101.795 60.6272C101.437 60.8799 101.007 61.0106 100.568 60.9999C100.13 60.9893 99.7061 60.8378 99.3606 60.568Z" fill="#F8DFE5"/>
<path id="Vector_58" d="M105.826 59.3388L101.287 56.2584L103.42 53.2431C103.703 52.8428 104.119 52.5552 104.594 52.4313C105.069 52.3074 105.573 52.3551 106.016 52.5659C106.465 52.7793 106.822 53.1456 107.023 53.5988C107.225 54.052 107.257 54.5621 107.115 55.0371L105.826 59.3388Z" fill="#3F66FB"/>
<path id="Vector_59" d="M106.33 44.4026C105.153 45.2064 103.608 46.0326 102.406 45.1767C101.617 44.6146 101.368 43.5738 101.688 42.6604C102.264 41.0179 103.845 40.2948 105.357 39.7405C107.323 39.0199 109.463 38.4467 111.492 38.9627C113.522 39.4788 115.315 41.4395 114.949 43.4972C114.654 45.1519 113.09 46.5288 113.312 48.1948C113.536 49.8715 115.425 50.754 117.093 51.0537C118.761 51.3533 120.627 51.4496 121.826 52.6453C123.355 54.1707 122.973 56.8971 121.535 58.5075C120.096 60.118 117.924 60.848 115.82 61.3443C113.032 62.0018 110.017 62.3474 107.37 61.2562C104.722 60.1649 102.661 57.2275 103.428 54.473C103.752 53.3095 104.516 52.3262 105.253 51.3689C105.991 50.4116 106.738 49.4106 107.019 48.2361C107.253 47.2573 107.08 46.121 106.43 45.3868C106.311 45.2583 106.237 45.0957 106.217 44.9223C106.197 44.749 106.233 44.5738 106.319 44.4219L106.33 44.4026Z" fill="#2F2E41"/>
<path id="Vector_60" d="M20.3328 66.6041C19.153 67.018 17.8863 67.1217 16.6547 66.9052C15.423 66.6887 14.2681 66.1592 13.301 65.3679C10.838 63.3048 10.0658 59.9059 9.43753 56.7586C8.81805 53.6557 8.19858 50.5527 7.5791 47.4497L11.4699 50.1235C14.268 52.0463 17.129 54.0307 19.0664 56.8157C21.0037 59.6008 21.8494 63.4027 20.2928 66.4163" fill="#E6E6E6"/>
<path id="Vector_61" d="M20.0002 77.8745C20.394 75.0117 20.799 72.1122 20.5227 69.2187C20.2774 66.649 19.4919 64.1392 17.8926 62.0812C17.0437 60.991 16.0108 60.0568 14.8403 59.3208C14.535 59.1285 14.2541 59.6113 14.558 59.8027C16.5834 61.0802 18.1499 62.9666 19.0318 65.1899C20.0058 67.6624 20.1622 70.3576 19.9944 72.984C19.8929 74.5723 19.6777 76.1502 19.461 77.7261C19.4439 77.7974 19.4545 77.8725 19.4908 77.9362C19.527 77.9999 19.5862 78.0475 19.6563 78.0694C19.7278 78.0886 19.804 78.079 19.8684 78.0425C19.9328 78.006 19.9801 77.9456 20.0002 77.8745Z" fill="#F2F2F2"/>
<path id="Vector_62" d="M16.2074 72.8087C15.7014 73.5762 15.0058 74.2008 14.1878 74.6222C13.3697 75.0435 12.4567 75.2475 11.5368 75.2145C9.17242 75.1025 7.20131 73.4556 5.42694 71.8921L0.178711 67.2675L3.65217 67.1016C6.15007 66.9823 8.71242 66.8711 11.0916 67.6398C13.4708 68.4086 15.665 70.2588 16.1 72.7165" fill="#E6E6E6"/>
<path id="Vector_63" d="M21.1131 79.5201C19.2177 76.1729 17.0192 72.4529 13.0908 71.2639C11.9985 70.9344 10.8531 70.8164 9.71644 70.9162C9.35819 70.947 9.44765 71.4982 9.80525 71.4674C11.7106 71.3095 13.6123 71.8116 15.1902 72.8892C16.7085 73.9207 17.8907 75.3546 18.8913 76.8753C19.5042 77.8067 20.0532 78.7777 20.6023 79.7474C20.7778 80.0573 21.2907 79.8336 21.1131 79.5201Z" fill="#F2F2F2"/>
<path id="Vector_64" d="M24.1503 83.0433C24.0864 82.3047 23.8207 81.5979 23.3822 80.9996C22.9436 80.4014 22.3489 79.9347 21.663 79.6504V77.7153H18.411V79.7114C17.7588 80.0096 17.1975 80.4751 16.7843 81.0605C16.3712 81.6458 16.1209 82.33 16.0591 83.0433L15.2944 91.9146H24.915L24.1503 83.0433Z" fill="#F2F2F2"/>
</g>
<defs>
<clipPath id="clip0_349_1584">
<rect width="129" height="93" fill="white"/>
</clipPath>
</defs>
</svg>
