<svg width="210" height="155" viewBox="0 0 210 155" fill="none" xmlns="http://www.w3.org/2000/svg">
<g id="undraw_teaching_re_g7e3 1" clip-path="url(#clip0_336_702)">
<path id="Vector" d="M149.06 113.684H35.972C34.9644 113.682 33.9984 113.282 33.2859 112.571C32.5734 111.859 32.1726 110.895 32.1714 109.889V17.9478C32.1726 16.9418 32.5734 15.9772 33.2859 15.2658C33.9984 14.5544 34.9644 14.1542 35.972 14.1531H149.06C150.068 14.1542 151.034 14.5544 151.746 15.2658C152.459 15.9772 152.859 16.9418 152.861 17.9478V109.889C152.859 110.895 152.459 111.859 151.746 112.571C151.034 113.282 150.068 113.682 149.06 113.684Z" fill="#E6E6E6"/>
<path id="Vector_2" d="M38.536 16.8541C37.5653 16.8553 36.6348 17.2407 35.9485 17.926C35.2621 18.6113 34.8761 19.5405 34.875 20.5096V107.329C34.8761 108.298 35.2622 109.227 35.9485 109.913C36.6349 110.598 37.5654 110.983 38.536 110.984H115.94C125.012 110.974 133.709 107.372 140.124 100.967C146.539 94.5619 150.147 85.8781 150.157 76.8204V20.5096C150.156 19.5405 149.77 18.6113 149.084 17.926C148.397 17.2407 147.467 16.8553 146.496 16.8541L38.536 16.8541Z" fill="white"/>
<path id="Vector_3" d="M128.438 55.9007H107.932C107.505 55.9002 107.095 55.7304 106.792 55.4284C106.49 55.1265 106.32 54.7171 106.319 54.2901V44.0999C106.32 43.6728 106.49 43.2635 106.792 42.9615C107.095 42.6596 107.505 42.4897 107.932 42.4893H128.438C128.866 42.4897 129.276 42.6596 129.578 42.9615C129.88 43.2635 130.051 43.6728 130.051 44.0999C131.32 47.7059 131.5 51.1324 130.051 54.2901C130.051 54.7171 129.88 55.1265 129.578 55.4285C129.276 55.7304 128.866 55.9002 128.438 55.9007Z" fill="#E6E6E6"/>
<path id="Vector_4" d="M126.009 54.9159H108.587C108.224 54.9155 107.876 54.7712 107.619 54.5147C107.362 54.2581 107.217 53.9103 107.217 53.5475V44.8899C107.217 44.5271 107.362 44.1792 107.619 43.9227C107.876 43.6662 108.224 43.5219 108.587 43.5215H126.009C126.372 43.5219 126.721 43.6662 126.977 43.9227C127.234 44.1792 127.379 44.5271 127.379 44.8898C128.555 47.9732 128.744 50.8908 127.379 53.5475C127.379 53.9103 127.234 54.2581 126.977 54.5147C126.721 54.7712 126.372 54.9155 126.009 54.9159Z" fill="white"/>
<path id="Vector_5" d="M125.069 61.2387H111.256C110.85 61.2393 110.46 61.0787 110.172 60.7923C109.884 60.5059 109.722 60.1171 109.721 59.7114C109.72 59.3057 109.881 58.9162 110.168 58.6288C110.455 58.3413 110.844 58.1793 111.25 58.1783H125.069C125.475 58.1791 125.864 58.3407 126.151 58.6276C126.438 58.9144 126.599 59.3032 126.599 59.7085C126.599 60.1139 126.438 60.5026 126.151 60.7895C125.864 61.0764 125.475 61.238 125.069 61.2387Z" fill="#E6E6E6"/>
<path id="Vector_6" d="M115.782 45.8593C115.623 45.8598 115.471 45.9231 115.358 46.0354C115.246 46.1477 115.183 46.2998 115.183 46.4584V52.9445C115.183 53.0492 115.21 53.1522 115.262 53.2429C115.315 53.3337 115.39 53.4092 115.481 53.4618C115.571 53.5144 115.674 53.5424 115.779 53.5428C115.884 53.5432 115.987 53.5161 116.078 53.4642L121.812 50.1999C121.904 50.1475 121.981 50.0717 122.034 49.9801C122.087 49.8885 122.115 49.7844 122.115 49.6786C122.115 49.5727 122.086 49.4688 122.032 49.3775C121.979 49.2862 121.902 49.2108 121.809 49.1589L116.076 45.9369C115.986 45.8861 115.885 45.8594 115.782 45.8593Z" fill="#E6E6E6"/>
<path id="Vector_7" d="M199.433 142.59C199.117 142.189 198.688 141.891 198.2 141.736C197.713 141.58 197.19 141.574 196.699 141.718L196.592 141.75L195.629 145.503C195.485 144.943 195.177 143.681 194.982 142.445L194.965 142.342L194.87 142.384C193.863 142.829 192.917 143.398 192.054 144.079C190.524 145.304 189.28 146.847 188.408 148.601C187.535 150.355 187.056 152.277 187.003 154.234L187.002 154.306L187 154.351L187.127 154.306L189.863 153.33C191.074 153.436 192.294 153.272 193.433 152.847C194.572 152.423 195.602 151.751 196.448 150.878C197.553 149.714 198.311 148.217 199.044 146.769C199.259 146.347 199.479 145.911 199.703 145.493C199.954 145.037 200.062 144.517 200.014 144C199.966 143.483 199.764 142.992 199.433 142.59Z" fill="#F2F2F2"/>
<path id="Vector_8" d="M129.575 46.8864C129.63 47.1705 129.746 47.4391 129.916 47.6733C130.086 47.9075 130.306 48.1017 130.559 48.2421C130.813 48.3824 131.094 48.4656 131.383 48.4858C131.672 48.5059 131.962 48.4625 132.233 48.3587L140.408 57.8549L141.443 54.3493L133.338 45.6613C133.133 45.2192 132.773 44.8674 132.326 44.6727C131.878 44.478 131.375 44.4538 130.911 44.6049C130.447 44.7559 130.055 45.0715 129.809 45.492C129.562 45.9125 129.479 46.4087 129.575 46.8864Z" fill="#FFB8B8"/>
<path id="Vector_9" d="M162.525 152.036H159.819L158.532 141.616H162.525L162.525 152.036Z" fill="#FFB6B6"/>
<path id="Vector_10" d="M162.452 151.154L159.564 149.981L159.481 149.947L157.886 151.154C156.985 151.154 156.122 151.511 155.485 152.147C154.848 152.783 154.49 153.645 154.49 154.544V154.655H163.214V151.154H162.452Z" fill="#1F327E"/>
<path id="Vector_11" d="M181.826 152.036H179.12L177.833 141.616H181.826L181.826 152.036Z" fill="#FFB6B6"/>
<path id="Vector_12" d="M181.754 151.154L178.865 149.981L178.782 149.947L177.187 151.154C176.287 151.154 175.423 151.511 174.786 152.147C174.149 152.783 173.792 153.645 173.792 154.544V154.655H182.515V151.154H181.754Z" fill="#1F327E"/>
<path id="Vector_13" d="M175.44 89.8125C175.44 89.8125 178.834 93.3376 178.834 96.2341C178.834 99.1305 177.985 103.108 178.834 103.978C179.682 104.848 180.743 105.907 179.47 107.178C178.197 108.449 177.561 109.084 178.409 109.931C179.258 110.778 178.834 125.602 178.834 125.602L183.288 145.509H177.676L170.562 125.602L168.653 109.084L162.479 124.967L163.161 145.68L157.295 145.509L154.866 123.485C154.866 123.485 158.472 102.534 157.836 101.997C157.199 101.46 157.836 100.376 157.836 100.376L159.532 92.3538L175.44 89.8125Z" fill="#1F327E"/>
<path id="Vector_14" d="M168.796 64.8188C168.796 64.8188 169.95 60.2788 164.634 58.9772C159.318 57.6755 144.121 56.0032 144.121 56.0032L136.442 47.8666L133.839 51.6399L142.449 62.3219L162.847 66.5054L168.796 64.8188Z" fill="#2F4CBC"/>
<path id="Vector_15" d="M135.104 51.3618C135.342 51.0533 135.529 50.7081 135.656 50.3397L136.758 47.6376L136.472 47.6257C136.076 47.5514 135.669 47.5614 135.278 47.6551C134.886 47.7487 134.519 47.9239 134.2 48.1692C133.881 48.4144 133.618 48.7242 133.427 49.0782C133.237 49.4322 133.123 49.8224 133.094 50.2233C133.058 50.5701 133.12 50.92 133.274 51.233C133.352 51.3882 133.466 51.5227 133.606 51.6254C133.747 51.7282 133.91 51.7963 134.081 51.8242C134.276 51.8346 134.471 51.798 134.649 51.7176C134.827 51.6371 134.983 51.5151 135.104 51.3618Z" fill="#E6E6E6"/>
<path id="Vector_16" d="M158.45 93.4356L157.813 98.0411C157.813 98.0411 159.086 99.4057 159.722 99.2351C160.359 99.0645 162.692 98.0716 162.692 98.0716C162.692 98.0716 165.449 99.5763 166.934 99.7468C168.419 99.9174 176.266 98.894 176.478 98.3822C176.69 97.8705 179.156 95.8674 179.156 95.8674L178.175 90.0242L158.45 93.4356Z" fill="#E6E6E6"/>
<path id="Vector_17" d="M179.115 77.3241C179.115 77.3241 178.576 81.765 179 82.1737C179.424 82.5803 178.576 85.1534 177.727 86.8476C176.879 88.5418 178.364 88.7535 178.364 90.0242C178.364 91.2948 179 95.9538 179 95.9538C179 95.9538 172.425 96.3774 171.364 95.3185C170.304 94.2596 168.607 95.1067 166.274 97.4362C163.941 99.7658 158.874 97.8598 157.813 96.8009C156.753 95.7421 158.638 91.9301 159.275 91.191C159.911 90.452 158.662 91.3075 158.025 88.9653C157.389 86.6231 158.638 86.8476 159.699 85.7887C160.759 84.7298 159.699 82.8239 158.85 80.9179C158.002 79.0119 158.638 64.8231 158.638 61.4347C158.638 58.0463 163.305 57.6228 163.305 57.6228L165.152 55.3039L166.509 53.5991L169.169 53.4932L169.239 53.4911L171.812 53.3873L173.061 54.8401L175.819 58.0464L179 58.6817C181.545 59.5288 180.909 64.8231 180.909 64.8231L179.115 77.3241Z" fill="#2F4CBC"/>
<path id="Vector_18" d="M169.038 52.5745C172.049 52.5745 174.49 50.1373 174.49 47.1308C174.49 44.1244 172.049 41.6871 169.038 41.6871C166.027 41.6871 163.586 44.1244 163.586 47.1308C163.586 50.1373 166.027 52.5745 169.038 52.5745Z" fill="#FFB6B6"/>
<path id="Vector_19" d="M175.359 45.2996C173.86 44.3814 174.052 41.9804 172.607 41.142C171.889 40.7287 171.081 40.4947 170.253 40.46C169.425 40.4252 168.601 40.5908 167.85 40.9426C166.833 40.5079 165.614 40.8548 164.799 41.6398C163.985 42.4248 163.545 43.5828 163.415 44.7475C163.321 45.9176 163.405 47.0952 163.664 48.2402C163.745 47.7802 163.826 47.3201 163.907 46.8601L168.205 45.9222C167.824 46.2635 167.444 46.6048 167.063 46.9462C169.01 47.3886 171.052 47.0697 172.771 46.055C174.642 46.8925 174.303 48.7734 172.66 51.2696C173.297 52.3285 177.068 46.3459 175.359 45.2996Z" fill="#333333"/>
<path id="Vector_20" d="M173.061 54.84C173.049 54.8499 173.036 54.8591 173.023 54.8676C172.574 55.1351 172.059 55.2743 171.536 55.2699C170.851 55.327 170.172 55.1141 169.642 54.6769C169.364 54.4144 168.259 54.9692 167.534 55.2763C166.773 55.5911 165.92 55.601 165.152 55.3038L166.509 53.599L168.746 53.1038H169.305L171.812 53.3873L173.061 54.84Z" fill="#E6E6E6"/>
<path id="Vector_21" d="M209.669 154.914L133.777 155C133.733 155 133.69 154.992 133.649 154.975C133.609 154.959 133.572 154.935 133.541 154.904C133.51 154.873 133.485 154.837 133.468 154.797C133.451 154.756 133.443 154.713 133.442 154.67C133.442 154.626 133.451 154.583 133.467 154.542C133.484 154.502 133.508 154.465 133.539 154.434C133.569 154.403 133.606 154.379 133.646 154.362C133.686 154.345 133.73 154.336 133.773 154.336H133.777L209.669 154.25C209.757 154.251 209.841 154.286 209.903 154.348C209.965 154.41 210 154.494 210 154.582C210 154.67 209.965 154.754 209.903 154.816C209.841 154.879 209.757 154.914 209.669 154.914Z" fill="#CACACA"/>
<path id="Vector_22" d="M118.798 43.4141H118.24V3.52759H140.207V4.08527H118.798V43.4141Z" fill="#333333"/>
<path id="Vector_23" d="M157.29 0H142.489C141.526 0 140.603 0.381916 139.922 1.06173C139.241 1.74154 138.858 2.66356 138.858 3.62496C138.858 4.58636 139.241 5.50838 139.922 6.1882C140.603 6.86801 141.526 7.24992 142.489 7.24992H157.29C158.253 7.24992 159.177 6.86801 159.858 6.1882C160.539 5.50838 160.921 4.58636 160.921 3.62496C160.921 2.66356 160.539 1.74154 159.858 1.06173C159.177 0.381916 158.253 0 157.29 0Z" fill="#333333"/>
<path id="Vector_24" d="M118.195 47.0632C120.038 47.0632 121.531 45.5718 121.531 43.7322C121.531 41.8925 120.038 40.4011 118.195 40.4011C116.353 40.4011 114.859 41.8925 114.859 43.7322C114.859 45.5718 116.353 47.0632 118.195 47.0632Z" fill="#333333"/>
<path id="Vector_25" d="M77.9932 56.2489L92.6288 52.8673L96.8298 51.8967C97.3553 51.7752 97.137 50.9675 96.6113 51.0889L81.9756 54.4705L77.7746 55.4412C77.2492 55.5626 77.4675 56.3703 77.9932 56.2489Z" fill="#F2F2F2"/>
<path id="Vector_26" d="M93.1064 47.4423L100.941 51.0409C101.209 51.1332 101.459 51.2686 101.683 51.4417C101.899 51.6532 101.742 51.8566 101.565 52.0408C101.038 52.5325 100.481 52.9915 99.8975 53.4152L96.5595 56.1248C96.1405 56.4649 96.7318 57.0584 97.1469 56.7215L100.054 54.3615L101.508 53.1815C101.92 52.8472 102.421 52.5061 102.586 51.9735C102.934 50.8546 101.562 50.4098 100.799 50.0595L97.3874 48.4924L93.5331 46.7221C93.0473 46.499 92.6169 47.2175 93.1064 47.4423Z" fill="#F2F2F2"/>
<path id="Vector_27" d="M201.228 74.8369C199.832 73.8921 198.137 73.541 196.479 73.4218C194.595 73.3195 192.707 73.3217 190.823 73.4285C188.867 73.5059 186.914 73.6472 184.965 73.8526C183.019 74.0582 181.081 74.3277 179.152 74.6609C177.424 74.9295 175.714 75.3031 174.032 75.7797C172.44 76.2197 170.94 76.9428 169.605 77.9143C168.433 78.7943 167.532 79.985 167.004 81.351C166.485 82.632 166.397 84.0465 166.753 85.3819C166.942 86.0306 167.266 86.6321 167.704 87.1471C168.21 87.7122 168.81 88.1863 169.477 88.5487C170.862 89.3381 172.431 89.8127 173.683 90.8234C174.013 91.0878 174.314 91.3867 174.581 91.7149C174.762 91.9688 175.012 92.1654 175.302 92.2814C175.577 92.3772 175.874 92.3897 176.155 92.3173C176.437 92.2449 176.691 92.0908 176.885 91.8745C177.136 91.5318 177.345 91.1605 177.508 90.7685L178.169 89.4958C178.213 89.3845 178.268 89.2779 178.334 89.1777C178.384 89.1187 178.295 89.1789 178.312 89.1634C178.321 89.1548 178.34 89.1551 178.351 89.1483C178.406 89.1211 178.463 89.0993 178.522 89.083C179.133 88.8504 179.747 88.625 180.363 88.4069C182.639 87.5971 184.942 86.8506 187.282 86.246C188.486 85.9236 189.707 85.6685 190.939 85.482C192.536 85.255 194.156 85.2814 195.76 85.1262C197.486 84.9591 199.267 84.6102 200.748 83.661C201.972 82.9183 202.915 81.7913 203.43 80.4563C203.653 79.8202 203.729 79.142 203.653 78.4722C203.461 76.9568 202.469 75.677 201.228 74.8369Z" fill="#E6E6E6"/>
<path id="Vector_28" d="M198.371 75.6885C197.11 74.8346 195.578 74.5174 194.08 74.4097C192.377 74.3172 190.671 74.3192 188.969 74.4157C187.201 74.4856 185.436 74.6134 183.675 74.799C181.916 74.9848 180.165 75.2283 178.421 75.5294C176.86 75.7721 175.315 76.1098 173.795 76.5405C172.356 76.938 171.001 77.5915 169.795 78.4694C168.736 79.2647 167.921 80.3406 167.444 81.575C166.975 82.7327 166.896 84.0109 167.217 85.2177C167.388 85.8039 167.681 86.3474 168.077 86.8129C168.534 87.3235 169.076 87.7519 169.679 88.0794C170.93 88.7928 172.348 89.2217 173.48 90.1351C173.778 90.374 174.05 90.644 174.291 90.9406C174.455 91.1701 174.681 91.3478 174.943 91.4526C175.191 91.5392 175.459 91.5504 175.714 91.485C175.969 91.4196 176.198 91.2803 176.373 91.0848C176.6 90.7752 176.789 90.4396 176.936 90.0854L177.533 88.9353C177.573 88.8347 177.623 88.7384 177.683 88.6478C177.727 88.5945 177.647 88.6489 177.663 88.6349C177.671 88.6272 177.688 88.6274 177.698 88.6213C177.747 88.5967 177.799 88.577 177.852 88.5622C178.404 88.352 178.959 88.1484 179.516 87.9513C181.573 87.2195 183.654 86.5449 185.769 85.9985C186.857 85.7071 187.96 85.4766 189.074 85.3081C190.516 85.103 191.981 85.1268 193.43 84.9866C194.99 84.8356 196.6 84.5203 197.937 83.6625C199.044 82.9913 199.896 81.9729 200.361 80.7666C200.562 80.1917 200.631 79.5788 200.563 78.9736C200.389 77.6042 199.493 76.4477 198.371 75.6885Z" fill="white"/>
<path id="Vector_29" d="M195.73 77.2302L175.175 81.0154C175.116 81.0266 175.056 81.0261 174.997 81.014C174.938 81.0018 174.883 80.9782 174.833 80.9446C174.784 80.9109 174.742 80.8678 174.709 80.8178C174.676 80.7678 174.654 80.7118 174.643 80.6531C174.632 80.5944 174.632 80.5341 174.645 80.4756C174.657 80.4171 174.681 80.3617 174.715 80.3124C174.748 80.2632 174.792 80.2211 174.842 80.1885C174.892 80.156 174.948 80.1337 175.007 80.1229L175.01 80.1224L195.565 76.3371C195.623 76.3263 195.684 76.3271 195.742 76.3396C195.8 76.352 195.856 76.3759 195.905 76.4097C195.954 76.4435 195.996 76.4867 196.029 76.5367C196.061 76.5867 196.084 76.6427 196.094 76.7013C196.105 76.7599 196.104 76.8201 196.092 76.8785C196.079 76.9368 196.056 76.9921 196.022 77.0412C195.988 77.0903 195.945 77.1323 195.894 77.1647C195.844 77.1971 195.788 77.2194 195.73 77.2302Z" fill="#E6E6E6"/>
<path id="Vector_30" d="M196.236 79.9712L175.681 83.7564C175.622 83.7676 175.562 83.7671 175.503 83.7549C175.445 83.7427 175.389 83.7192 175.34 83.6855C175.29 83.6518 175.248 83.6088 175.215 83.5587C175.182 83.5087 175.16 83.4528 175.149 83.3941C175.138 83.3353 175.139 83.275 175.151 83.2166C175.163 83.1581 175.187 83.1027 175.221 83.0534C175.255 83.0042 175.298 82.9621 175.348 82.9295C175.398 82.897 175.455 82.8747 175.513 82.8638L175.516 82.8633L196.071 79.0781C196.13 79.0673 196.19 79.0681 196.248 79.0806C196.307 79.093 196.362 79.1168 196.411 79.1506C196.46 79.1845 196.503 79.2276 196.535 79.2777C196.567 79.3277 196.59 79.3836 196.601 79.4423C196.611 79.5009 196.611 79.5611 196.598 79.6194C196.586 79.6777 196.562 79.733 196.528 79.7821C196.494 79.8313 196.451 79.8732 196.401 79.9057C196.351 79.9381 196.295 79.9603 196.236 79.9712Z" fill="#E6E6E6"/>
<path id="Vector_31" d="M178.583 86.0562L176.188 86.4973C176.069 86.5186 175.947 86.4923 175.848 86.424C175.749 86.3556 175.681 86.2509 175.659 86.1328C175.638 86.0146 175.664 85.8927 175.732 85.7936C175.8 85.6945 175.904 85.6264 176.023 85.6042L178.418 85.1631C178.536 85.1416 178.659 85.1679 178.758 85.2362C178.857 85.3045 178.925 85.4093 178.946 85.5275C178.968 85.6457 178.942 85.7678 178.874 85.8669C178.806 85.966 178.701 86.034 178.583 86.0562Z" fill="#E6E6E6"/>
<path id="Vector_32" d="M176.847 97.451C177.897 97.2576 178.591 96.2512 178.397 95.203C178.204 94.1548 177.196 93.4617 176.146 93.6551C175.096 93.8484 174.402 94.8549 174.596 95.9031C174.789 96.9513 175.797 97.6443 176.847 97.451Z" fill="#D1D3D4"/>
<path id="Vector_33" d="M70.4724 55.3845H52.9155C52.1005 55.3835 51.3191 55.0598 50.7428 54.4844C50.1665 53.909 49.8423 53.1288 49.8413 52.315V40.7618C49.8423 39.9481 50.1665 39.1679 50.7428 38.5925C51.3191 38.017 52.1005 37.6933 52.9155 37.6924H70.4724C71.2874 37.6933 72.0688 38.017 72.6451 38.5925C73.2214 39.1679 73.5456 39.9481 73.5466 40.7618V52.315C73.5456 53.1288 73.2214 53.909 72.6451 54.4844C72.0688 55.0598 71.2874 55.3835 70.4724 55.3845Z" fill="#E6E6E6"/>
<path id="Vector_34" d="M68.5429 54.7621H53.2629C52.5536 54.7613 51.8735 54.4795 51.372 53.9787C50.8704 53.4779 50.5882 52.7989 50.5874 52.0907V42.0358C50.5882 41.3275 50.8704 40.6485 51.372 40.1477C51.8735 39.6469 52.5536 39.3652 53.2629 39.3644H68.5429C69.2523 39.3652 69.9323 39.6469 70.4339 40.1477C70.9355 40.6485 71.2176 41.3275 71.2185 42.0358V52.0907C71.2176 52.799 70.9355 53.4779 70.4339 53.9787C69.9323 54.4795 69.2523 54.7613 68.5429 54.7621Z" fill="white"/>
<path id="Vector_35" d="M72.9453 65.7933H50.4175C50.2783 65.793 50.1449 65.7376 50.0466 65.6392C49.9483 65.5408 49.8931 65.4075 49.8931 65.2685C49.8931 65.1295 49.9483 64.9962 50.0466 64.8978C50.1449 64.7994 50.2783 64.744 50.4175 64.7437H72.9453C73.0845 64.744 73.2179 64.7994 73.3162 64.8978C73.4145 64.9962 73.4697 65.1295 73.4697 65.2685C73.4697 65.4075 73.4145 65.5408 73.3162 65.6392C73.2179 65.7376 73.0845 65.793 72.9453 65.7933Z" fill="#E6E6E6"/>
<path id="Vector_36" d="M72.9453 62.7942H50.4175C50.2783 62.7939 50.1449 62.7384 50.0466 62.64C49.9483 62.5416 49.8931 62.4083 49.8931 62.2693C49.8931 62.1304 49.9483 61.9971 50.0466 61.8987C50.1449 61.8003 50.2783 61.7448 50.4175 61.7445H72.9453C73.0845 61.7448 73.2179 61.8003 73.3162 61.8987C73.4145 61.9971 73.4697 62.1304 73.4697 62.2693C73.4697 62.4083 73.4145 62.5416 73.3162 62.64C73.2179 62.7384 73.0845 62.7939 72.9453 62.7942Z" fill="#E6E6E6"/>
<path id="Vector_37" d="M72.9451 68.7924H50.4173C50.2778 68.7924 50.1441 68.7371 50.0456 68.6386C49.947 68.5402 49.8916 68.4067 49.8916 68.2675C49.8916 68.1283 49.947 67.9948 50.0456 67.8964C50.1441 67.798 50.2778 67.7427 50.4173 67.7427H72.9451C73.0845 67.7427 73.2182 67.798 73.3167 67.8964C73.4153 67.9948 73.4707 68.1283 73.4707 68.2675C73.4707 68.4067 73.4153 68.5402 73.3167 68.6386C73.2182 68.7371 73.0845 68.7924 72.9451 68.7924Z" fill="#E6E6E6"/>
<path id="Vector_38" d="M72.9451 71.7914H50.4173C50.2778 71.7914 50.1441 71.7361 50.0456 71.6377C49.947 71.5392 49.8916 71.4057 49.8916 71.2665C49.8916 71.1273 49.947 70.9939 50.0456 70.8954C50.1441 70.797 50.2778 70.7417 50.4173 70.7417H72.9451C73.0845 70.7417 73.2182 70.797 73.3167 70.8954C73.4153 70.9939 73.4707 71.1273 73.4707 71.2665C73.4707 71.4057 73.4153 71.5392 73.3167 71.6377C73.2182 71.7361 73.0845 71.7914 72.9451 71.7914Z" fill="#E6E6E6"/>
<path id="Vector_39" d="M72.9451 74.7904H50.4173C50.2778 74.7904 50.1441 74.7351 50.0456 74.6367C49.947 74.5383 49.8916 74.4048 49.8916 74.2656C49.8916 74.1264 49.947 73.9929 50.0456 73.8944C50.1441 73.796 50.2778 73.7407 50.4173 73.7407H72.9451C73.0845 73.7407 73.2182 73.796 73.3167 73.8944C73.4153 73.9929 73.4707 74.1264 73.4707 74.2656C73.4707 74.4048 73.4153 74.5383 73.3167 74.6367C73.2182 74.7351 73.0845 74.7904 72.9451 74.7904Z" fill="#E6E6E6"/>
<path id="Vector_40" d="M72.9453 77.7894H50.4175C50.2783 77.7891 50.1449 77.7337 50.0466 77.6353C49.9483 77.5369 49.8931 77.4036 49.8931 77.2646C49.8931 77.1256 49.9483 76.9923 50.0466 76.8939C50.1449 76.7955 50.2783 76.7401 50.4175 76.7397H72.9453C73.0845 76.7401 73.2179 76.7955 73.3162 76.8939C73.4145 76.9923 73.4697 77.1256 73.4697 77.2646C73.4697 77.4036 73.4145 77.5369 73.3162 77.6353C73.2179 77.7337 73.0845 77.7891 72.9453 77.7894Z" fill="#E6E6E6"/>
<path id="Vector_41" d="M60.5547 70.9114H61.1132V92.3943H20.7144V91.8366H60.5547V70.9114Z" fill="#333333"/>
<path id="Vector_42" d="M3.63056 95.922H18.4321C19.395 95.922 20.3184 95.5401 20.9993 94.8603C21.6801 94.1805 22.0626 93.2585 22.0626 92.2971C22.0626 91.3357 21.6801 90.4137 20.9993 89.7338C20.3184 89.054 19.395 88.6721 18.4321 88.6721H3.63056C2.66767 88.6721 1.74423 89.054 1.06337 89.7338C0.382506 90.4137 0 91.3357 0 92.2971C0 93.2585 0.382506 94.1805 1.06337 94.8603C1.74423 95.5401 2.66767 95.922 3.63056 95.922Z" fill="#333333"/>
<path id="Vector_43" d="M61.2229 72.5302C63.0654 72.5302 64.5591 71.0389 64.5591 69.1992C64.5591 67.3595 63.0654 65.8682 61.2229 65.8682C59.3804 65.8682 57.8867 67.3595 57.8867 69.1992C57.8867 71.0389 59.3804 72.5302 61.2229 72.5302Z" fill="#333333"/>
<path id="Vector_44" d="M78.4667 70.1249C83.3648 71.1643 82.1189 71.3672 87.0169 72.4065L91.2347 73.3016C91.7623 73.4135 91.9068 72.5894 91.3789 72.4774C86.4809 71.438 87.7268 71.2351 82.8287 70.1957L78.611 69.3007C78.0834 69.1887 77.9389 70.0129 78.4667 70.1249Z" fill="#F2F2F2"/>
<path id="Vector_45" d="M89.7486 67.6928L95.3231 74.263C95.5263 74.4596 95.6958 74.6881 95.8251 74.9393C95.9314 75.2223 95.7026 75.3401 95.4646 75.4325C94.7785 75.6553 94.0794 75.8359 93.3712 75.9734L89.1985 77.0185C88.6747 77.1497 88.959 77.9373 89.4779 77.8073L93.1122 76.897L94.9293 76.4419C95.4441 76.3129 96.0429 76.2156 96.4185 75.8029C97.2076 74.936 96.1528 73.9533 95.6102 73.3138L93.1826 70.4526L90.4403 67.2204C90.0947 66.813 89.4003 67.2823 89.7486 67.6928Z" fill="#F2F2F2"/>
<path id="Vector_46" d="M107.423 96.3333C111.708 96.3333 115.181 92.8652 115.181 88.5871C115.181 84.3089 111.708 80.8408 107.423 80.8408C103.139 80.8408 99.665 84.3089 99.665 88.5871C99.665 92.8652 103.139 96.3333 107.423 96.3333Z" fill="#E6E6E6"/>
<path id="Vector_47" d="M106.667 95.3456C109.925 95.3456 112.565 92.709 112.565 89.4566C112.565 86.2042 109.925 83.5676 106.667 83.5676C103.41 83.5676 100.769 86.2042 100.769 89.4566C100.769 92.709 103.41 95.3456 106.667 95.3456Z" fill="white"/>
<path id="Vector_48" d="M105.609 93.4883C105.475 93.4883 105.343 93.4571 105.223 93.3973C105.103 93.3375 104.999 93.2506 104.918 93.1435L102.802 90.3258C102.734 90.2353 102.684 90.1323 102.656 90.0227C102.628 89.9131 102.622 89.799 102.638 89.687C102.653 89.575 102.691 89.4672 102.749 89.3698C102.807 89.2724 102.883 89.1873 102.974 89.1194C103.064 89.0515 103.168 89.002 103.277 88.9739C103.387 88.9457 103.501 88.9395 103.614 88.9554C103.726 88.9714 103.834 89.0092 103.931 89.0668C104.029 89.1244 104.114 89.2007 104.182 89.2911L104.183 89.2918L105.567 91.1352L109.124 85.8087C109.187 85.7144 109.267 85.6334 109.362 85.5703C109.456 85.5072 109.561 85.4632 109.673 85.4409C109.784 85.4186 109.898 85.4185 110.01 85.4404C110.121 85.4623 110.227 85.506 110.321 85.5688C110.416 85.6316 110.497 85.7124 110.56 85.8065C110.623 85.9006 110.667 86.0062 110.689 86.1173C110.711 86.2284 110.711 86.3427 110.689 86.4538C110.667 86.5649 110.623 86.6705 110.56 86.7647L106.327 93.1046C106.25 93.2192 106.147 93.3139 106.026 93.3806C105.906 93.4473 105.771 93.4842 105.633 93.488C105.625 93.4881 105.617 93.4883 105.609 93.4883Z" fill="#E6E6E6"/>
<path id="Vector_49" d="M179.866 96.5668C180.116 96.4202 180.331 96.2206 180.495 95.9822C180.659 95.7438 180.769 95.4723 180.817 95.187C180.864 94.9016 180.849 94.6092 180.771 94.3305C180.694 94.0517 180.556 93.7934 180.367 93.5736L186.597 82.7048L182.942 82.9031L177.452 93.4355C177.103 93.7761 176.891 94.2326 176.857 94.7186C176.823 95.2045 176.968 95.6861 177.266 96.072C177.564 96.458 177.993 96.7216 178.472 96.8128C178.951 96.9039 179.447 96.8164 179.866 96.5668Z" fill="#FFB8B8"/>
<path id="Vector_50" d="M172.85 58.4699C172.85 58.4699 179.448 56.3522 181.145 61.4347C182.841 66.5173 188.546 80.2826 188.546 80.2826L182.417 92.7773L179.66 89.8124L182.607 81.1297L174.123 68.4233L172.85 58.4699Z" fill="#2F4CBC"/>
<path id="Vector_51" d="M182.627 91.5012C182.429 91.1657 182.177 90.8646 181.881 90.6099L179.776 88.5869L179.659 88.8476C179.443 89.1869 179.302 89.568 179.244 89.9657C179.186 90.3634 179.212 90.7689 179.322 91.1556C179.432 91.5423 179.623 91.9014 179.881 92.2094C180.14 92.5174 180.461 92.7674 180.823 92.9429C181.132 93.105 181.481 93.1769 181.829 93.1504C182.002 93.1353 182.17 93.0795 182.317 92.9874C182.465 92.8954 182.589 92.7697 182.678 92.6208C182.76 92.4437 182.798 92.2496 182.789 92.0548C182.781 91.8599 182.725 91.67 182.627 91.5012Z" fill="#E6E6E6"/>
<path id="Vector_52" d="M107.356 99.0083H106.798V120.491H125.693V119.934H107.356V99.0083Z" fill="#333333"/>
<path id="Vector_53" d="M146.407 120.394C146.406 119.433 146.023 118.511 145.342 117.832C144.662 117.152 143.739 116.77 142.776 116.769H127.975C127.012 116.769 126.088 117.151 125.408 117.831C124.727 118.511 124.344 119.433 124.344 120.394C124.344 121.355 124.727 122.277 125.408 122.957C126.088 123.637 127.012 124.019 127.975 124.019H142.776C143.739 124.018 144.662 123.636 145.342 122.956C146.023 122.277 146.406 121.355 146.407 120.394Z" fill="#333333"/>
<path id="Vector_54" d="M106.688 100.627C108.53 100.627 110.024 99.1358 110.024 97.2961C110.024 95.4564 108.53 93.9651 106.688 93.9651C104.845 93.9651 103.352 95.4564 103.352 97.2961C103.352 99.1358 104.845 100.627 106.688 100.627Z" fill="#333333"/>
</g>
<defs>
<clipPath id="clip0_336_702">
<rect width="210" height="155" fill="white"/>
</clipPath>
</defs>
</svg>
